<svg width="160" height="24" viewBox="0 0 160 24" fill="none" xmlns="http://www.w3.org/2000/svg"><rect width="160" height="24" fill="#1a1a2e"/>
<path d="M0 3.1783H6.86456C7.8216 3.1783 8.72643 3.26012 9.57906 3.42377C10.4317 3.58743 11.1712 3.87382 11.7976 4.28295C12.4415 4.67571 12.9461 5.21576 13.3115 5.9031C13.6943 6.57407 13.8857 7.42506 13.8857 8.45607C13.8857 9.47071 13.7117 10.3217 13.3637 11.009C13.0157 11.6964 12.5372 12.2446 11.9282 12.6537C11.3191 13.0629 10.597 13.3574 9.76177 13.5375C8.92654 13.7011 8.0217 13.7829 7.04727 13.7829H4.07175V20.5581H0V3.1783ZM4.07175 10.5426H6.78626C7.15167 10.5426 7.49968 10.5099 7.8303 10.4444C8.17831 10.379 8.48282 10.2726 8.74383 10.1253C9.02224 9.96167 9.23975 9.74892 9.39635 9.48708C9.57036 9.20887 9.65736 8.8652 9.65736 8.45607C9.65736 8.01421 9.54426 7.66236 9.31805 7.40052C9.10924 7.12231 8.83083 6.90956 8.48282 6.76227C8.15221 6.61499 7.77809 6.52498 7.36048 6.49225C6.94286 6.44315 6.54265 6.4186 6.15983 6.4186H4.07175V10.5426Z" fill="#FCFCFC"/>
<path d="M23.3834 19.0607H23.3312C22.8962 19.699 22.3133 20.1572 21.5825 20.4354C20.869 20.7136 20.1121 20.8527 19.3117 20.8527C18.72 20.8527 18.1458 20.7709 17.589 20.6072C17.0496 20.4599 16.5711 20.2308 16.1535 19.9199C15.7358 19.609 15.4052 19.2244 15.1616 18.7661C14.918 18.3079 14.7962 17.7761 14.7962 17.1705C14.7962 16.4832 14.9267 15.9022 15.1877 15.4276C15.4661 14.9531 15.8315 14.5603 16.284 14.2494C16.7538 13.9384 17.2845 13.7011 17.8761 13.5375C18.4677 13.3574 19.0768 13.2265 19.7032 13.1447C20.347 13.0629 20.9821 13.0138 21.6086 12.9974C22.2524 12.9811 22.844 12.9729 23.3834 12.9729C23.3834 12.3183 23.1311 11.8028 22.6265 11.4264C22.1393 11.0336 21.5564 10.8372 20.8777 10.8372C20.2339 10.8372 19.6423 10.9681 19.1029 11.23C18.5808 11.4755 18.111 11.8191 17.6934 12.261L15.6053 10.2481C16.3362 9.60982 17.1888 9.13523 18.1632 8.82429C19.1377 8.49699 20.1469 8.33333 21.1909 8.33333C22.3394 8.33333 23.279 8.47244 24.0098 8.75065C24.7581 9.01249 25.3497 9.40525 25.7847 9.92894C26.2371 10.4526 26.5503 11.0991 26.7243 11.8682C26.8984 12.621 26.9854 13.4966 26.9854 14.4948V20.5581H23.3834V19.0607ZM22.4177 15.3295C22.1219 15.3295 21.7478 15.3458 21.2953 15.3786C20.8603 15.3949 20.434 15.4604 20.0164 15.5749C19.6162 15.6895 19.2682 15.8613 18.9724 16.0904C18.6939 16.3196 18.5547 16.6387 18.5547 17.0478C18.5547 17.4897 18.7548 17.817 19.1551 18.0297C19.5553 18.2425 19.9729 18.3488 20.4079 18.3488C20.7907 18.3488 21.1561 18.2997 21.5042 18.2015C21.8696 18.1034 22.1915 17.9643 22.4699 17.7842C22.7483 17.6042 22.9658 17.3751 23.1224 17.0969C23.2964 16.8187 23.3834 16.4914 23.3834 16.115V15.3295H22.4177Z" fill="#FCFCFC"/>
<path d="M28.9197 8.62791H32.6782V10.2481H32.7304C32.8522 10.0189 33.0262 9.78984 33.2524 9.56072C33.4787 9.33161 33.7484 9.12705 34.0616 8.94703C34.3748 8.76701 34.7315 8.61972 35.1317 8.50517C35.5319 8.39061 35.967 8.33333 36.4368 8.33333C37.4286 8.33333 38.229 8.48062 38.8381 8.77519C39.4471 9.0534 39.9169 9.44617 40.2475 9.95349C40.5955 10.4608 40.8304 11.0581 40.9522 11.7455C41.074 12.4328 41.1349 13.1774 41.1349 13.9793V20.5581H37.2198V14.7158C37.2198 14.3721 37.2024 14.0202 37.1676 13.6602C37.1502 13.2838 37.0719 12.9401 36.9327 12.6292C36.8109 12.3183 36.6108 12.0646 36.3324 11.8682C36.0714 11.6718 35.6885 11.5736 35.1839 11.5736C34.6793 11.5736 34.2704 11.6637 33.9572 11.8437C33.644 12.0073 33.4004 12.2364 33.2263 12.531C33.0697 12.8092 32.9653 13.1283 32.9131 13.4884C32.8609 13.8484 32.8348 14.2248 32.8348 14.6176V20.5581H28.9197V8.62791Z" fill="#FCFCFC"/>
<path d="M56.6968 20.5581H53.0949V18.9871H53.0427C52.8861 19.1998 52.6773 19.4208 52.4163 19.6499C52.1727 19.8626 51.8769 20.059 51.5289 20.239C51.1982 20.419 50.8241 20.5663 50.4065 20.6809C50.0063 20.7954 49.5887 20.8527 49.1537 20.8527C48.214 20.8527 47.3614 20.7054 46.5958 20.4109C45.8301 20.0999 45.1689 19.6744 44.6121 19.1344C44.0727 18.578 43.6551 17.9233 43.3592 17.1705C43.0634 16.4177 42.9155 15.5913 42.9155 14.6912C42.9155 13.8566 43.046 13.0629 43.307 12.3101C43.5855 11.5409 43.9683 10.8618 44.4555 10.2726C44.9601 9.68346 45.5691 9.21705 46.2826 8.87339C46.996 8.51335 47.8051 8.33333 48.7099 8.33333C49.5278 8.33333 50.2847 8.45607 50.9807 8.70155C51.6942 8.93066 52.2771 9.33161 52.7295 9.90439H52.7817V2H56.6968V20.5581ZM53.0949 14.593C53.0949 13.6929 52.8165 12.9647 52.2597 12.4083C51.7203 11.8519 50.9546 11.5736 49.9628 11.5736C48.971 11.5736 48.1966 11.8519 47.6398 12.4083C47.1004 12.9647 46.8307 13.6929 46.8307 14.593C46.8307 15.4931 47.1004 16.2214 47.6398 16.7778C48.1966 17.3342 48.971 17.6124 49.9628 17.6124C50.9546 17.6124 51.7203 17.3342 52.2597 16.7778C52.8165 16.2214 53.0949 15.4931 53.0949 14.593Z" fill="#FCFCFC"/>
<path d="M67.2647 19.0607H67.2125C66.7775 19.699 66.1945 20.1572 65.4637 20.4354C64.7503 20.7136 63.9934 20.8527 63.1929 20.8527C62.6013 20.8527 62.0271 20.7709 61.4703 20.6072C60.9308 20.4599 60.4523 20.2308 60.0347 19.9199C59.6171 19.609 59.2865 19.2244 59.0429 18.7661C58.7993 18.3079 58.6775 17.7761 58.6775 17.1705C58.6775 16.4832 58.808 15.9022 59.069 15.4276C59.3474 14.9531 59.7128 14.5603 60.1652 14.2494C60.635 13.9384 61.1658 13.7011 61.7574 13.5375C62.349 13.3574 62.958 13.2265 63.5844 13.1447C64.2283 13.0629 64.8634 13.0138 65.4898 12.9974C66.1336 12.9811 66.7253 12.9729 67.2647 12.9729C67.2647 12.3183 67.0124 11.8028 66.5078 11.4264C66.0205 11.0336 65.4376 10.8372 64.759 10.8372C64.1152 10.8372 63.5235 10.9681 62.9841 11.23C62.4621 11.4755 61.9923 11.8191 61.5747 12.261L59.4866 10.2481C60.2174 9.60982 61.07 9.13523 62.0445 8.82429C63.0189 8.49699 64.0282 8.33333 65.0722 8.33333C66.2206 8.33333 67.1603 8.47244 67.8911 8.75065C68.6393 9.01249 69.231 9.40525 69.666 9.92894C70.1184 10.4526 70.4316 11.0991 70.6056 11.8682C70.7796 12.621 70.8666 13.4966 70.8666 14.4948V20.5581H67.2647V19.0607ZM66.2989 15.3295C66.0031 15.3295 65.629 15.3458 65.1766 15.3786C64.7416 15.3949 64.3153 15.4604 63.8977 15.5749C63.4974 15.6895 63.1494 15.8613 62.8536 16.0904C62.5752 16.3196 62.436 16.6387 62.436 17.0478C62.436 17.4897 62.6361 17.817 63.0363 18.0297C63.4365 18.2425 63.8542 18.3488 64.2892 18.3488C64.672 18.3488 65.0374 18.2997 65.3854 18.2015C65.7508 18.1034 66.0727 17.9643 66.3512 17.7842C66.6296 17.6042 66.8471 17.3751 67.0037 17.0969C67.1777 16.8187 67.2647 16.4914 67.2647 16.115V15.3295H66.2989Z" fill="#FCFCFC"/>
<path d="M82.4322 7.42506C82.1016 7.0323 81.6492 6.74591 81.075 6.56589C80.5181 6.36951 79.9874 6.27132 79.4828 6.27132C79.187 6.27132 78.8825 6.30405 78.5693 6.36951C78.2561 6.43497 77.9602 6.54134 77.6818 6.68863C77.4034 6.81955 77.1772 6.99957 77.0032 7.22868C76.8292 7.45779 76.7422 7.736 76.7422 8.06331C76.7422 8.58699 76.951 8.98794 77.3686 9.26615C77.7862 9.54436 78.3083 9.78165 78.9347 9.97804C79.5785 10.1744 80.2658 10.3708 80.9967 10.5672C81.7275 10.7636 82.4061 11.0418 83.0325 11.4018C83.6764 11.7618 84.2071 12.2446 84.6247 12.8501C85.0423 13.4556 85.2511 14.2657 85.2511 15.2804C85.2511 16.2459 85.0597 17.0887 84.6769 17.8088C84.2941 18.5289 83.7721 19.1262 83.1108 19.6008C82.467 20.0754 81.7101 20.4272 80.84 20.6563C79.9874 20.8854 79.0826 21 78.1255 21C76.9249 21 75.8113 20.8282 74.7846 20.4845C73.758 20.1408 72.8009 19.5844 71.9135 18.8152L74.8107 15.8204C75.2283 16.3441 75.7504 16.7532 76.3768 17.0478C77.0206 17.326 77.6818 17.4651 78.3605 17.4651C78.6911 17.4651 79.0217 17.4324 79.3523 17.3669C79.7003 17.2851 80.0048 17.1705 80.2658 17.0233C80.5442 16.876 80.7617 16.6878 80.9184 16.4587C81.0924 16.2295 81.1794 15.9595 81.1794 15.6486C81.1794 15.1249 80.9619 14.7158 80.5268 14.4212C80.1092 14.1102 79.5785 13.8484 78.9347 13.6357C78.2909 13.4229 77.5948 13.2102 76.8466 12.9974C76.0984 12.7847 75.4023 12.4983 74.7585 12.1382C74.1147 11.7782 73.5753 11.3036 73.1403 10.7145C72.7226 10.1253 72.5138 9.34798 72.5138 8.38243C72.5138 7.44961 72.7052 6.63135 73.0881 5.92765C73.4883 5.22394 74.0103 4.6348 74.6541 4.16021C75.3153 3.68562 76.0723 3.33376 76.9249 3.10465C77.7775 2.85917 78.6563 2.73643 79.5611 2.73643C80.6051 2.73643 81.6144 2.87554 82.5888 3.15375C83.5633 3.43196 84.442 3.89836 85.225 4.55297L82.4322 7.42506Z" fill="#FCFCFC"/>
<path d="M95.8538 12.4819C95.6624 12.2201 95.3927 12.0073 95.0447 11.8437C94.6967 11.6637 94.3226 11.5736 93.9224 11.5736C92.9305 11.5736 92.1562 11.8519 91.5994 12.4083C91.0599 12.9647 90.7902 13.6929 90.7902 14.593C90.7902 15.4931 91.0599 16.2214 91.5994 16.7778C92.1562 17.3342 92.9305 17.6124 93.9224 17.6124C94.3574 17.6124 94.7315 17.5224 95.0447 17.3424C95.3579 17.1624 95.6276 16.9496 95.8538 16.7041L98.4378 19.2571C97.8288 19.8463 97.1067 20.2636 96.2714 20.509C95.4536 20.7382 94.6706 20.8527 93.9224 20.8527C92.9479 20.8527 92.0257 20.7054 91.1557 20.4109C90.303 20.1163 89.5548 19.699 88.911 19.1589C88.2845 18.6025 87.7886 17.9397 87.4232 17.1705C87.0578 16.4014 86.8751 15.5422 86.8751 14.593C86.8751 13.6438 87.0578 12.7847 87.4232 12.0155C87.7886 11.2463 88.2845 10.5917 88.911 10.0517C89.5548 9.49526 90.303 9.06977 91.1557 8.77519C92.0257 8.48062 92.9479 8.33333 93.9224 8.33333C94.6706 8.33333 95.4536 8.45607 96.2714 8.70155C97.1067 8.93066 97.8288 9.33979 98.4378 9.92894L95.8538 12.4819Z" fill="#FCFCFC"/>
<path d="M98.8664 14.593C98.8664 13.6438 99.0492 12.7847 99.4146 12.0155C99.78 11.2463 100.276 10.5917 100.902 10.0517C101.546 9.49526 102.294 9.06977 103.147 8.77519C104.017 8.48062 104.939 8.33333 105.914 8.33333C106.888 8.33333 107.802 8.48062 108.654 8.77519C109.524 9.06977 110.273 9.49526 110.899 10.0517C111.543 10.5917 112.047 11.2463 112.413 12.0155C112.778 12.7847 112.961 13.6438 112.961 14.593C112.961 15.5422 112.778 16.4014 112.413 17.1705C112.047 17.9397 111.543 18.6025 110.899 19.1589C110.273 19.699 109.524 20.1163 108.654 20.4109C107.802 20.7054 106.888 20.8527 105.914 20.8527C104.939 20.8527 104.017 20.7054 103.147 20.4109C102.294 20.1163 101.546 19.699 100.902 19.1589C100.276 18.6025 99.78 17.9397 99.4146 17.1705C99.0492 16.4014 98.8664 15.5422 98.8664 14.593ZM102.782 14.593C102.782 15.4931 103.051 16.2214 103.591 16.7778C104.148 17.3342 104.922 17.6124 105.914 17.6124C106.906 17.6124 107.671 17.3342 108.211 16.7778C108.767 16.2214 109.046 15.4931 109.046 14.593C109.046 13.6929 108.767 12.9647 108.211 12.4083C107.671 11.8519 106.906 11.5736 105.914 11.5736C104.922 11.5736 104.148 11.8519 103.591 12.4083C103.051 12.9647 102.782 13.6929 102.782 14.593Z" fill="#FCFCFC"/>
<path d="M114.745 8.62791H118.66V10.5426H118.712C119.13 9.8062 119.626 9.25797 120.2 8.89793C120.774 8.52153 121.496 8.33333 122.367 8.33333C122.593 8.33333 122.819 8.34152 123.045 8.35788C123.271 8.37425 123.48 8.40698 123.672 8.45607V11.8191C123.393 11.7373 123.115 11.68 122.836 11.6473C122.575 11.5982 122.297 11.5736 122.001 11.5736C121.253 11.5736 120.661 11.6718 120.226 11.8682C119.791 12.0646 119.452 12.3428 119.208 12.7028C118.982 13.0465 118.834 13.4638 118.765 13.9548C118.695 14.4457 118.66 14.9858 118.66 15.5749V20.5581H114.745V8.62791Z" fill="#FCFCFC"/>
<path d="M136.4 18.4961C135.773 19.2489 134.982 19.8299 134.024 20.239C133.067 20.6481 132.076 20.8527 131.049 20.8527C130.075 20.8527 129.152 20.7054 128.282 20.4109C127.43 20.1163 126.681 19.699 126.038 19.1589C125.411 18.6025 124.915 17.9397 124.55 17.1705C124.184 16.4014 124.002 15.5422 124.002 14.593C124.002 13.6438 124.184 12.7847 124.55 12.0155C124.915 11.2463 125.411 10.5917 126.038 10.0517C126.681 9.49526 127.43 9.06977 128.282 8.77519C129.152 8.48062 130.075 8.33333 131.049 8.33333C131.954 8.33333 132.772 8.48062 133.502 8.77519C134.251 9.06977 134.877 9.49526 135.382 10.0517C135.904 10.5917 136.304 11.2463 136.582 12.0155C136.861 12.7847 137 13.6438 137 14.593V15.7468H127.917C128.073 16.4505 128.413 17.0151 128.935 17.4406C129.457 17.8497 130.101 18.0543 130.866 18.0543C131.51 18.0543 132.05 17.9233 132.485 17.6615C132.937 17.3833 133.328 17.0314 133.659 16.6059L136.4 18.4961ZM133.085 13.2429C133.102 12.621 132.885 12.0891 132.432 11.6473C131.98 11.2054 131.397 10.9845 130.684 10.9845C130.249 10.9845 129.866 11.05 129.535 11.1809C129.204 11.3118 128.917 11.4836 128.674 11.6964C128.448 11.8928 128.265 12.1301 128.126 12.4083C128.004 12.6701 127.934 12.9483 127.917 13.2429H133.085Z" fill="#FCFCFC"/>
</svg>
