<?xml version="1.0" encoding="UTF-8" standalone="no"?>
<svg
   title="Petfinder Logo"
   focusable="false"
   viewBox="0 0 1089.9 286.51852"
   version="1.1"
   id="svg12"
   sodipodi:docname="Petfinder 2023.svg"
   inkscape:export-filename="petfinder cutie ig 2023.png"
   inkscape:export-xdpi="96"
   inkscape:export-ydpi="96"
   inkscape:version="1.3 (0e150ed6c4, 2023-07-21)"
   width="1089.9"
   height="286.51852"
   xmlns:inkscape="http://www.inkscape.org/namespaces/inkscape"
   xmlns:sodipodi="http://sodipodi.sourceforge.net/DTD/sodipodi-0.dtd"
   xmlns="http://www.w3.org/2000/svg"
   xmlns:svg="http://www.w3.org/2000/svg">
  <defs
     id="defs12" />
  <sodipodi:namedview
     id="namedview12"
     pagecolor="#505050"
     bordercolor="#eeeeee"
     borderopacity="1"
     inkscape:showpageshadow="0"
     inkscape:pageopacity="0"
     inkscape:pagecheckerboard="0"
     inkscape:deskcolor="#d1d1d1"
     inkscape:zoom="0.52780316"
     inkscape:cx="460.39891"
     inkscape:cy="143.04575"
     inkscape:window-width="1920"
     inkscape:window-height="991"
     inkscape:window-x="-9"
     inkscape:window-y="-9"
     inkscape:window-maximized="1"
     inkscape:current-layer="svg12" />
  <g
     fill="#6504b5"
     id="g2"
     transform="translate(-0.3,-0.88)">
    <path
       d="m 838.5,129.95 c 0,-4.3 0.01,-8.77 0.01,-13.38 0,-26.22 2.34,-55.08 2.34,-80.28 0,-8.75 -6.54,-17.82 -17.73,-17.82 -8.76,0 -17.49,7.27 -17.49,17.34 0,14.28 1.08,29.79 1.74,53.88 -6.32,-3.84 -15.37,-6.98 -29.94,-6.98 -44.31,0 -68.17,34.7 -68.17,64.91 0,9.88 1.63,18.41 4.48,25.69 -4.7,4.08 -10.71,7.73 -18.4,7.73 -7.69,0 -15.42,-6.42 -15.42,-30.46 0,-5.4 0.86,-26.81 0.86,-34.64 0,-20.91 -15.09,-33.3 -37.32,-33.3 -22.23,0 -35.3,11.86 -43.82,25.53 0.22,-3.17 0.37,-5.97 0.37,-8.3 0,-11.29 -9.5,-17.23 -18,-17.23 -7.39,0 -17.24,5.83 -17.24,17.59 0,14.98 1.19,30.26 1.7,45.35 0.13,3.69 0.21,7.37 0.22,11.06 -0.53,0.61 -1.03,1.25 -1.46,1.92 -7.6,11.76 -16,21.09 -33.24,21.09 -21.36,0 -29.43,-12.23 -29.43,-32.06 0,-9.24 7,-15.8 7,-25.78 0,-2.65 -0.55,-5.33 -1.56,-7.88 a 32.91,32.91 0 0 1 -5.88,5.04 c -0.33,0.17 -0.64,0.43 -0.95,0.63 -0.32,0.21 -0.65,0.41 -0.98,0.6 -0.36,0.21 -0.75,0.37 -1.12,0.57 -0.65,0.36 -1.3,0.69 -1.97,1.01 -0.63,0.3 -1.25,0.59 -1.89,0.86 -0.34,0.15 -0.67,0.33 -1.02,0.47 -0.45,0.18 -0.91,0.31 -1.37,0.47 -0.35,0.13 -0.69,0.28 -1.04,0.41 -0.97,0.33 -1.96,0.64 -2.98,0.8 -0.45,0.07 -0.88,0.09 -1.31,0.09 -0.43,0 -0.86,-0.02 -1.31,-0.09 -1.02,-0.16 -2.01,-0.47 -2.98,-0.8 -0.35,-0.12 -0.69,-0.28 -1.04,-0.4 -0.46,-0.16 -0.92,-0.29 -1.37,-0.47 -0.35,-0.14 -0.68,-0.32 -1.02,-0.47 -0.64,-0.27 -1.26,-0.56 -1.89,-0.86 -0.67,-0.32 -1.32,-0.65 -1.97,-1.01 -0.37,-0.2 -0.76,-0.36 -1.12,-0.57 -0.33,-0.19 -0.66,-0.4 -0.98,-0.6 -0.31,-0.2 -0.62,-0.47 -0.95,-0.63 -1.87,-1.25 -3.62,-2.7 -5.21,-4.3 -0.77,2.25 -1.19,4.66 -1.19,7.16 0,9.49 6.97,16.85 6.97,25.6 0,19.83 -8.79,32.21 -29.51,32.21 -16.42,0 -25.59,-9.04 -33.13,-21.09 a 15.99,15.99 0 0 0 -1.73,-2.24 l 0.04,-0.02 c 24.14,-23.21 64.74,-67.33 64.74,-105.39 0,-29.55 -16.11,-50.03 -44.63,-50.03 -13.66,0 -24.74,3.86 -33.24,10.12 -8.77,6.46 -14.74,15.51 -17.91,25.59 a 58.387,58.387 0 0 0 -2.69,17.43 c 0,13.5 0.59,27.01 0.94,40.5 0.03,1.25 0.08,2.5 0.11,3.75 0.21,10.16 0.33,20.33 0.42,30.5 0.03,2.59 0.09,5.18 0.11,7.77 0.05,7.73 -2.31,8.6 -7.1,14.57 -4.06,5.05 -10.26,10.32 -13.68,13.76 -4.02,4.04 -6.77,12.17 -4.62,18.58 2.12,6.29 12.4,11.12 19.76,5.29 0.92,-0.73 1.79,-1.62 2.42,-2.23 1.23,-1.19 2.61,-2.33 3.89,-3.41 2.1,12.96 -0.04,28.08 -0.41,41.23 -0.49,17.51 -2.41,24.65 -2.41,42.14 -0.71,11.23 6.23,22.08 19.59,20.83 8.93,-0.84 14.28,-7.68 14.2,-19.93 -0.02,-2.79 0.32,-43.39 0.19,-75.11 9.23,7.14 21.4,12.53 36.01,12.53 14.61,0 32.14,-4.12 43.23,-21.14 12.07,18.75 31.9,21.15 43.45,21.15 13.17,0 24.6,-4.62 33.62,-11.01 1.74,8.26 9.09,13.88 17.43,13.88 8.76,0 17.49,-7.09 17.49,-17.43 0,-3.29 -1.21,-17.65 -1.91,-30.91 0.04,-18.09 19.03,-49.82 35.93,-49.82 8.42,0 13.9,7.32 13.9,17.68 0,7.96 -0.94,23.67 -0.94,34.08 0,24.57 6.2,46.2 40.9,46.2 16.51,0 29.39,-7.51 38.49,-15.26 11.27,10.57 26.79,15.38 42.53,15.38 20.81,0 34.83,-9.12 43.82,-17.54 -0.03,1.26 -0.05,2.47 -0.05,3.58 0,8.49 4.52,14.56 12.4,14.56 7.24,0 16.79,-5.85 16.79,-14.4 0,-1.37 -0.56,-9.49 -1.24,-20.29 -0.81,-13 -1.79,-29.87 -2.13,-43.5 z m -410.23,-101 c 10.65,0 14.98,10.66 14.98,21.95 0,27.68 -20.29,54.21 -35.14,71.24 0.09,-3.54 0.2,-7.29 0.3,-11.13 0.65,-23.75 1.45,-51.02 1.45,-55.74 0,-9.07 3.46,-16.85 7.85,-21.32 3.09,-3.14 6.77,-5 10.56,-5 z m 379.59,114.44 c -0.06,16.8 -12.6,38.76 -35.42,38.76 -14.05,0 -27.91,-11.07 -27.91,-34.87 0,-26.9 18.54,-39.06 35.4,-39.06 12.91,0 21.19,4.89 27.92,12.06 0,2 0.02,4.03 0.02,6.13 V 143.4 Z M 74.34,78.54 C 57.39,78.54 44.83,84.45 35.78,91.22 33.48,82.85 25.4,78.47 18.03,78.47 10.66,78.47 0.4,84.43 0.4,96.46 c 0,10.85 2.32,40.55 2.32,79.89 0,39.34 -2.42,65.48 -2.42,80.84 0,10.51 5.6,18.03 15.36,18.03 8.97,0 20.79,-7.25 20.79,-17.83 0,-3.87 -1.63,-28.44 -2.23,-59.36 15.03,6.58 32.08,9.94 54.32,6.18 19.75,-3.34 34.75,-21.58 34.75,-21.58 8.67,-11.3 12.09,-28.12 12.09,-42.79 0,-43.23 -30.13,-61.3 -61.03,-61.3 z M 63.08,179 c -10.32,0 -21.4,-3.54 -29.05,-11.55 0.07,-7.88 0.22,-15.32 0.42,-22.21 0.03,-0.28 0.05,-0.59 0.05,-0.94 0,-17.2 12.84,-39.78 36.24,-39.78 14.38,0 28.55,11.32 28.55,35.68 0,27.53 -18.96,38.8 -36.21,38.8 z"
       id="path1" />
    <path
       d="m 327.62,133.88 c 0,-3.62 0.04,-7.33 0.04,-11.09 v -1.08 c 0,-5.51 0.1,-11.1 0.27,-16.69 11.45,0.17 19.86,0.45 26.22,0.45 2.24,0 5.36,-0.78 8.08,-2.54 3.18,-2.06 5.82,-5.47 5.82,-10.83 0,-7.88 -5.53,-13.45 -14.24,-13.45 -8.03,0 -15.95,0.21 -24.82,0.38 0.39,-8.2 0.76,-16.09 1.01,-23.54 0.16,-4.9 0.28,-9.65 0.28,-14.05 0,-9.4 -7.34,-18.07 -18.36,-18.07 -7.07,0 -17.02,5.36 -17.67,17.27 -0.02,0.4 -0.12,0.75 -0.12,1.16 0,2.89 0.65,14.94 1.27,28.8 0.08,2.7 0.15,5.46 0.2,8.31 -3.75,-0.13 -12.29,-0.25 -15.8,-0.25 -5.64,0 -14,3.58 -14,13.6 0,8.4 7.52,13.21 14.06,13.21 2.79,0 11.32,-0.16 15.96,-0.32 -0.04,9.28 -0.21,17.8 -0.44,25.58 -0.21,3.36 -0.43,6.79 -0.63,10.13 -0.14,4.84 -0.32,10.39 -0.41,15.61 -0.5,10.47 -0.94,25.07 -0.94,31.54 0,10.51 4.48,18.03 19.02,17.65 10.61,-0.28 17.13,-8.26 17.13,-17.45 0,-2.47 -0.65,-19.54 -1.28,-35.11 -0.24,-5.82 -0.47,-12.29 -0.67,-19.23 z M 549.26,68.54 c 0,10.466 -8.484,18.95 -18.95,18.95 -10.466,0 -18.95,-8.484 -18.95,-18.95 0,-10.466 8.484,-18.95 18.95,-18.95 10.466,0 18.95,8.484 18.95,18.95 z M 262.4,166.3 c -4.86,0 -10.72,4.46 -10.73,4.46 -4.5,3.42 -9.51,6.34 -14.93,8.02 -5.59,1.74 -11.25,1.46 -17.02,1.46 -19.96,0 -28.99,-7.52 -32.91,-18.45 46.49,-0.37 70.1,-18.78 70.1,-46.71 0,-21.51 -18.86,-36.74 -45.65,-36.74 -34.73,0 -63.57,26.21 -63.57,67.69 0,6.55 0.71,12.59 2.07,18.13 0,0 2.47,10.99 9.18,19.57 11.21,14.58 30.65,22.34 57.7,22.34 15.08,0 31.03,-3.78 44.48,-10.6 5.24,-2.66 11.37,-5.61 13.26,-11.6 1.38,-4.38 0.68,-9.55 -2.24,-13.17 -2.38,-2.95 -6,-4.38 -9.75,-4.38 z m -51.57,-64.98 c 12.08,0 16.23,9.52 16.23,15.37 0,14.13 -9.2,23.14 -43.07,23.67 0.1,-30.31 16.68,-39.04 26.84,-39.04 z m 853.38,-22.33 c -18.37,0 -32.55,12.89 -40.8,25.43 0.22,-3.16 0.37,-5.94 0.37,-8.26 0,-11.29 -9.5,-17.23 -17.99,-17.23 -7.39,0 -17.24,5.83 -17.24,17.59 0,10.6 2.27,27.1 2.27,44.19 0,2.84 -0.08,5.55 -0.18,8.2 -0.4,11.6 -1,18.28 -2.01,30.41 -0.1,2.3 -0.17,4.61 -0.17,6.97 0,10.28 8.3,17.62 17.85,17.62 8.77,0 17.49,-7.09 17.49,-17.43 0,-3.31 -1.22,-17.8 -1.92,-31.13 0.16,-21.2 21.88,-46.95 32.6,-46.95 7.05,0 5.49,9.73 18.73,9.73 8.78,0 16.99,-7.05 16.99,-17.11 0,-8.68 -5.88,-22.05 -25.97,-22.05 z m -98.22,86.55 c -4.86,0 -10.72,4.46 -10.73,4.46 -4.5,3.42 -9.51,6.34 -14.93,8.02 -5.59,1.74 -11.25,1.46 -17.02,1.46 -19.96,0 -28.99,-7.52 -32.91,-18.45 46.49,-0.37 70.1,-18.78 70.1,-46.71 0,-21.51 -18.86,-36.74 -45.65,-36.74 -34.73,0 -63.57,26.21 -63.57,67.68 0,6.55 0.71,12.59 2.07,18.13 0,0 2.47,10.99 9.18,19.57 11.21,14.58 30.65,22.34 57.7,22.34 15.08,0 31.03,-3.78 44.48,-10.6 5.24,-2.66 11.37,-5.61 13.26,-11.6 1.38,-4.38 0.68,-9.55 -2.24,-13.17 -2.38,-2.95 -6,-4.38 -9.75,-4.38 z m -51.57,-64.98 c 12.08,0 16.23,9.52 16.23,15.37 0,14.13 -9.2,23.14 -43.07,23.67 0.1,-30.31 16.68,-39.04 26.84,-39.04 z"
       id="path2" />
  </g>
  <path
     fill="#c22a22"
     d="m 513.03,110.24 c -0.47,-1.17 -1.06,-2.3 -1.78,-3.34 -2.2,-3.2 -5.71,-5.14 -9.53,-5.75 -0.88,-0.14 -1.79,-0.22 -2.72,-0.23 -2.77,-0.03 -5.63,0.56 -7.94,1.95 -0.78,0.47 -1.49,1.01 -2.14,1.63 -0.65,0.61 -1.23,1.3 -1.74,2.03 a 12.72,12.72 0 0 0 -3.88,-3.66 c -0.77,-0.46 -1.6,-0.84 -2.47,-1.13 -1.74,-0.58 -3.62,-0.84 -5.47,-0.82 -0.92,0.01 -1.84,0.09 -2.72,0.23 -3.82,0.61 -7.32,2.55 -9.53,5.75 -0.72,1.04 -1.31,2.17 -1.78,3.34 -2.44,6.02 -1.41,12.8 2.25,18.6 2.28,3.61 5.42,6.6 8.96,8.96 0.33,0.17 0.64,0.43 0.95,0.63 0.32,0.21 0.65,0.41 0.98,0.6 0.36,0.21 0.75,0.37 1.12,0.57 0.65,0.36 1.31,0.69 1.97,1.01 0.63,0.3 1.25,0.59 1.89,0.86 0.34,0.15 0.67,0.33 1.02,0.47 0.45,0.18 0.91,0.31 1.37,0.47 0.35,0.13 0.69,0.28 1.04,0.4 0.98,0.33 1.96,0.64 2.98,0.8 0.45,0.07 0.88,0.09 1.31,0.09 0.43,0 0.86,-0.02 1.31,-0.09 1.02,-0.16 2.01,-0.47 2.98,-0.8 0.35,-0.12 0.69,-0.28 1.04,-0.41 0.46,-0.16 0.92,-0.29 1.37,-0.47 0.35,-0.14 0.68,-0.32 1.02,-0.47 0.64,-0.27 1.26,-0.56 1.89,-0.86 0.67,-0.32 1.32,-0.65 1.97,-1.01 0.37,-0.2 0.76,-0.36 1.12,-0.57 0.33,-0.19 0.66,-0.4 0.98,-0.6 0.31,-0.2 0.62,-0.47 0.95,-0.63 3.53,-2.37 6.68,-5.36 8.96,-8.96 3.66,-5.8 4.69,-12.58 2.25,-18.6 z"
     id="path3" />
  <g
     fill="#555557"
     id="g4"
     transform="translate(-0.3,-0.88)">
    <path
       d="m 480.93,254.45 c 0,2.92 -0.99,5.17 -2.99,6.74 -1.99,1.57 -4.84,2.36 -8.55,2.36 H 466 v 11.34 h -3.35 v -28.83 h 7.47 c 7.21,0 10.81,2.8 10.81,8.4 z M 466,260.66 h 3.02 c 2.97,0 5.12,-0.48 6.45,-1.44 1.33,-0.96 1.99,-2.5 1.99,-4.62 0,-1.91 -0.63,-3.32 -1.87,-4.26 -1.25,-0.93 -3.2,-1.4 -5.84,-1.4 H 466 v 11.71 z m 50.04,-0.24 c 0,4.62 -1.17,8.24 -3.5,10.89 -2.33,2.64 -5.58,3.96 -9.73,3.96 -4.15,0 -7.52,-1.3 -9.83,-3.89 -2.31,-2.6 -3.46,-6.26 -3.46,-11 0,-4.74 1.16,-8.33 3.47,-10.91 2.31,-2.59 5.6,-3.88 9.86,-3.88 4.26,0 7.38,1.31 9.7,3.95 2.33,2.63 3.49,6.26 3.49,10.89 z m -22.98,0 c 0,3.9 0.83,6.87 2.49,8.88 1.66,2.02 4.08,3.03 7.25,3.03 3.17,0 5.61,-1 7.24,-3.02 1.63,-2.01 2.44,-4.98 2.44,-8.89 0,-3.91 -0.81,-6.82 -2.44,-8.82 -1.62,-2.01 -4.02,-3.01 -7.21,-3.01 -3.19,0 -5.62,1.01 -7.29,3.03 -1.66,2.02 -2.49,4.96 -2.49,8.81 z m 58.61,14.46 h -3.32 l -5.82,-19.31 c -0.27,-0.85 -0.59,-1.93 -0.93,-3.23 -0.34,-1.3 -0.52,-2.08 -0.53,-2.35 -0.29,1.74 -0.75,3.64 -1.38,5.7 l -5.64,19.19 h -3.31 l -7.67,-28.83 h 3.55 l 4.56,17.81 c 0.63,2.5 1.09,4.76 1.38,6.78 0.35,-2.41 0.88,-4.76 1.58,-7.06 l 5.17,-17.53 h 3.55 l 5.42,17.69 c 0.63,2.04 1.16,4.34 1.6,6.9 0.25,-1.87 0.72,-4.15 1.42,-6.83 l 4.54,-17.77 h 3.55 l -7.71,28.83 z m 32.34,0 h -16.07 v -28.83 h 16.07 v 2.98 h -12.72 v 9.29 h 11.95 v 2.96 h -11.95 v 10.61 h 12.72 v 3 z m 13.79,-11.99 v 11.99 h -3.35 v -28.83 h 7.91 c 3.54,0 6.15,0.68 7.84,2.03 1.69,1.36 2.53,3.39 2.53,6.11 0,3.82 -1.93,6.39 -5.8,7.73 l 7.83,12.96 h -3.96 l -6.98,-11.99 z m 0,-2.88 h 4.6 c 2.37,0 4.1,-0.47 5.21,-1.41 1.1,-0.94 1.66,-2.35 1.66,-4.23 0,-1.88 -0.56,-3.28 -1.69,-4.12 -1.12,-0.84 -2.93,-1.26 -5.41,-1.26 h -4.36 v 11.03 z m 41.73,14.87 h -16.07 v -28.83 h 16.07 v 2.98 h -12.72 v 9.29 h 11.95 v 2.96 h -11.95 v 10.61 h 12.72 v 3 z m 33.45,-14.69 c 0,4.76 -1.29,8.4 -3.88,10.91 -2.58,2.52 -6.3,3.78 -11.15,3.78 h -7.99 v -28.83 h 8.83 c 4.49,0 7.97,1.24 10.45,3.73 2.48,2.49 3.73,5.96 3.73,10.42 z m -3.55,0.12 c 0,-3.76 -0.94,-6.59 -2.83,-8.5 -1.89,-1.91 -4.69,-2.86 -8.41,-2.86 h -4.87 v 23.03 h 4.08 c 4,0 7,-0.98 9.01,-2.95 2.01,-1.97 3.02,-4.88 3.02,-8.73 z m 28.55,-14.27 h 8.14 c 3.83,0 6.59,0.57 8.3,1.72 1.71,1.14 2.56,2.95 2.56,5.42 0,1.71 -0.48,3.12 -1.43,4.23 -0.96,1.11 -2.34,1.83 -4.17,2.16 v 0.19 c 4.38,0.75 6.57,3.05 6.57,6.9 0,2.58 -0.87,4.59 -2.61,6.03 -1.74,1.45 -4.18,2.17 -7.31,2.17 h -10.06 v -28.83 z m 3.35,12.35 h 5.52 c 2.37,0 4.07,-0.37 5.11,-1.11 1.04,-0.74 1.56,-1.99 1.56,-3.76 0,-1.62 -0.58,-2.78 -1.74,-3.5 -1.16,-0.72 -3,-1.07 -5.52,-1.07 h -4.93 v 9.45 z m 0,2.84 v 10.79 h 6.02 c 2.33,0 4.08,-0.45 5.25,-1.36 1.18,-0.9 1.77,-2.31 1.77,-4.23 0,-1.78 -0.6,-3.1 -1.81,-3.94 -1.2,-0.84 -3.03,-1.27 -5.49,-1.27 h -5.74 z m 34.2,-0.77 7.69,-14.41 h 3.63 l -9.62,17.65 v 11.18 h -3.39 v -11.02 l -9.6,-17.81 h 3.67 l 7.63,14.41 z"
       id="path4" />
  </g>
  <path
     fill="#ffffff"
     d="m 768.7,232.76 h 254.09 v 53.58 H 768.7 Z"
     id="path5" />
  <path
     fill="#c22a22"
     d="m 820.56,279.43 v -44.94 h -50.13 v 50.13 h 250.63 v -5.19 H 820.55 Z m -5.19,0 h -39.76 v -39.76 h 39.76 z"
     id="path6" />
  <g
     fill="#c22a22"
     id="g7"
     transform="translate(-0.3,-0.88)">
    <path
       d="m 777.64,242.28 h 12.1 v 12.1 h -12.1 z m 0,24.2 h 12.1 v 12.1 h -12.1 z m 12.1,-12.1 h 12.1 v 12.1 h -12.1 z m 12.1,-12.1 h 12.1 v 12.1 h -12.1 z m 0,24.2 h 12.1 v 12.1 h -12.1 z"
       id="path7" />
  </g>
  <path
     d="m 820.52,234.49 h 200.54 v 44.94 H 820.52 Z"
     id="path8" />
  <g
     fill="#ffffff"
     id="g9"
     transform="translate(-0.3,-0.88)">
    <path
       d="m 948.52,245.44 c 0,-0.52 0.28,-0.8 0.8,-0.8 h 3.93 c 0.4,0 0.72,0.16 0.96,0.52 l 9.7,14.67 c 0.92,1.4 1.92,2.89 2.97,4.61 0.16,0.28 0.44,0.24 0.44,-0.08 -0.04,-1.64 -0.12,-4.09 -0.12,-5.73 v -13.19 c 0,-0.52 0.28,-0.8 0.8,-0.8 h 3.21 c 0.52,0 0.8,0.28 0.8,0.8 v 26.45 c 0,0.52 -0.28,0.8 -0.8,0.8 h -3.81 c -0.4,0 -0.72,-0.16 -0.96,-0.52 l -9.82,-14.67 c -0.96,-1.4 -1.92,-2.89 -2.97,-4.61 -0.16,-0.28 -0.44,-0.24 -0.44,0.08 0.04,1.64 0.12,4.09 0.12,5.73 v 13.19 c 0,0.52 -0.28,0.8 -0.8,0.8 h -3.21 c -0.52,0 -0.8,-0.28 -0.8,-0.8 z m -16.55,-0.8 h 3.25 a 0.8,0.8 0 0 1 0.8,0.8 v 26.45 a 0.8,0.8 0 0 1 -0.8,0.8 h -3.25 a 0.8,0.8 0 0 1 -0.8,-0.8 v -26.45 a 0.8,0.8 0 0 1 0.8,-0.8 z m -11.1,24.01 c -1,0 -1.88,0 -2.4,-0.16 -0.56,-0.16 -0.88,-0.48 -1.2,-0.96 l -3.25,-4.81 c -0.16,-0.24 -0.08,-0.4 0.2,-0.52 0.96,-0.4 1.84,-1 2.57,-1.72 1.64,-1.64 2.65,-4.09 2.65,-6.65 0,-2.56 -0.96,-5.09 -2.65,-6.73 -1.6,-1.6 -3.49,-2.44 -6.65,-2.44 h -11.02 c -0.52,0 -0.8,0.28 -0.8,0.8 v 26.45 c 0,0.52 0.28,0.8 0.8,0.8 h 3.29 c 0.52,0 0.8,-0.28 0.8,-0.8 v -8.58 c 0,-0.24 0.16,-0.4 0.4,-0.4 h 4.09 c 0.52,0 0.92,0.2 1.2,0.64 l 4.57,6.81 c 1.64,2.44 3.25,2.93 5.81,2.93 0.4,0 1.48,0 1.84,-0.12 0.4,-0.12 0.56,-0.4 0.56,-0.76 v -2.97 c 0,-0.52 -0.28,-0.8 -0.8,-0.8 z m -7.73,-11.62 c -0.84,0.76 -1.76,1.16 -3.29,1.16 h -6.25 c -0.24,0 -0.4,-0.16 -0.4,-0.4 v -8.02 c 0,-0.24 0.16,-0.4 0.4,-0.4 h 6.25 c 1.52,0 2.45,0.4 3.25,1.16 0.84,0.76 1.28,2 1.28,3.29 0,1.2 -0.44,2.44 -1.24,3.21 z m -46.46,12.94 c -2.04,-2 -3.05,-4.57 -3.05,-8.62 v -15.91 c 0,-0.52 0.28,-0.8 0.8,-0.8 l 3.37,0.04 c 0.52,0 0.8,0.28 0.8,0.8 v 16.51 c 0,2.28 0.6,3.65 1.76,4.89 1.12,1.24 2.97,1.8 4.77,1.8 1.8,0 3.77,-0.56 4.93,-1.8 1.12,-1.24 1.68,-2.6 1.68,-4.89 v -16.55 c 0,-0.52 0.28,-0.8 0.8,-0.8 h 3.37 c 0.52,0 0.8,0.28 0.8,0.8 v 16.11 c 0,4.01 -1,6.41 -3.01,8.46 -2.08,2.12 -5.29,3.29 -8.58,3.29 -3.29,0 -6.41,-1.24 -8.46,-3.33 m -15.29,-22.72 c -1.76,-1.72 -3.77,-2.6 -7.17,-2.6 h -11.54 c -0.52,0 -0.8,0.28 -0.8,0.8 v 26.45 c 0,0.52 0.28,0.8 0.8,0.8 h 3.29 c 0.52,0 0.8,-0.28 0.8,-0.8 v -7.29 c 0,-0.24 0.16,-0.4 0.4,-0.4 h 6.89 c 3.45,0 5.57,-0.88 7.29,-2.6 1.76,-1.76 2.85,-4.37 2.85,-7.13 0,-2.76 -1.04,-5.45 -2.81,-7.21 z m -3.61,10.9 c -0.92,0.88 -2,1.32 -3.77,1.32 h -6.85 c -0.24,0 -0.4,-0.16 -0.4,-0.4 v -9.3 c 0,-0.24 0.16,-0.4 0.4,-0.4 h 6.85 c 1.76,0 2.85,0.48 3.77,1.32 0.96,0.88 1.44,2.32 1.44,3.77 0,1.45 -0.48,2.81 -1.44,3.69 z m 160.84,13.62 -10.98,-26.53 c -0.16,-0.44 -0.48,-0.6 -0.92,-0.6 h -4.17 c -0.44,0 -0.76,0.24 -0.92,0.64 l -10.86,26.49 c -0.24,0.56 0.04,0.92 0.64,0.92 h 3.53 c 0.44,0 0.76,-0.24 0.92,-0.64 l 2.12,-5.25 c 0.12,-0.32 0.32,-0.44 0.64,-0.44 h 12.02 c 0.32,0 0.52,0.12 0.64,0.44 l 2.16,5.25 c 0.16,0.4 0.48,0.64 0.92,0.64 h 3.65 c 0.6,0 0.84,-0.36 0.6,-0.92 z m -9.98,-10.1 h -8.06 c -0.36,0 -0.56,-0.2 -0.4,-0.56 l 1.8,-4.69 c 0.8,-2.04 1.52,-3.93 2.32,-6.05 0.16,-0.44 0.4,-0.44 0.56,0 0.8,2.12 1.52,4.01 2.32,6.05 l 1.8,4.69 c 0.16,0.36 0,0.56 -0.36,0.56 z"
       id="path9" />
  </g>
</svg>
