<svg version="1.1" viewBox="0.0 0.0 160.0 32.0" fill="none" stroke="none" stroke-linecap="square" stroke-miterlimit="10" xmlns:xlink="http://www.w3.org/1999/xlink" xmlns="http://www.w3.org/2000/svg"><clipPath id="p.0"><path d="m0 0l160.0 0l0 32.0l-160.0 0l0 -32.0z" clip-rule="nonzero"/></clipPath><g clip-path="url(#p.0)"><path fill="#000000" fill-opacity="0.0" d="m0 0l160.0 0l0 32.0l-160.0 0z" fill-rule="evenodd"/><path fill="#000000" fill-opacity="0.0" d="m6.88189E-4 6.968428l15.578787 0" fill-rule="evenodd"/><path stroke="#ffffff" stroke-width="2.0" stroke-linejoin="round" stroke-linecap="butt" d="m6.88189E-4 6.968428l15.578787 0" fill-rule="evenodd"/><path fill="#000000" fill-opacity="0.0" d="m0.02747559 23.17323l15.552 0" fill-rule="evenodd"/><path stroke="#ffffff" stroke-width="2.0" stroke-linejoin="round" stroke-linecap="butt" d="m0.02747559 23.17323l15.552 0" fill-rule="evenodd"/><path fill="#000000" fill-opacity="0.0" d="m1.9714756 23.17323c0 -3.9668007 2.916 -5.950201 5.832 -7.9336004c2.9160004 -1.9834003 5.832 -3.9668007 5.832 -7.9336004" fill-rule="evenodd"/><path stroke="#ffffff" stroke-width="2.0" stroke-linejoin="round" stroke-linecap="butt" d="m1.9714756 23.17323c0 -3.9668007 2.916 -5.950201 5.832 -7.9336004c2.9160004 -1.9834003 5.832 -3.9668007 5.832 -7.9336004" fill-rule="evenodd"/><path fill="#000000" fill-opacity="0.0" d="m1.9714756 6.968428c0 4.0512004 2.916319 6.0768 5.832638 8.1024c2.916319 2.0255995 5.832638 4.0512 5.832638 8.102401" fill-rule="evenodd"/><path stroke="#ffffff" stroke-width="2.0" stroke-linejoin="round" stroke-linecap="butt" d="m1.9714756 6.968428c0 4.0512004 2.916319 6.0768 5.832638 8.1024c2.916319 2.0255995 5.832638 4.0512 5.832638 8.102401" fill-rule="evenodd"/><path fill="#000000" fill-opacity="0.0" d="m19.098688 -2.6141732l142.3622 0l0 35.37008l-142.3622 0z" fill-rule="evenodd"/><path fill="#ffffff" d="m38.379936 15.110242q0 1.874999 -0.515625 3.406249q-0.5 1.515625 -1.515625 2.578125q-1.0 1.046875 -2.5 1.515625l3.59375 3.765625l-2.53125 0l-2.953123 -3.4375q-0.125 0 -0.265625 0q-0.140625 0.015625 -0.28125 0.015625q-1.765625 0 -3.09375 -0.5625q-1.3125 -0.5625 -2.1875 -1.59375q-0.859375 -1.046875 -1.296875 -2.484375q-0.4375 -1.453125 -0.4375 -3.218749q0 -2.328125 0.765625 -4.078125q0.78125 -1.765625 2.34375 -2.75q1.578125 -0.9843755 3.9375 -0.9843755q2.265623 0 3.796873 0.9687505q1.546875 0.96875 2.34375 2.734375q0.796875 1.75 0.796875 4.125zm-12.109373 0q0 1.937499 0.546875 3.359374q0.546875 1.421875 1.6875 2.1875q1.140625 0.765625 2.90625 0.765625q1.7656231 0 2.890623 -0.765625q1.140625 -0.765625 1.671875 -2.1875q0.546875 -1.421875 0.546875 -3.359374q0 -2.9375 -1.234375 -4.59375q-1.234375 -1.671875 -3.843748 -1.671875q-1.765625 0 -2.921875 0.765625q-1.140625 0.765625 -1.703125 2.171875q-0.546875 1.390625 -0.546875 3.328125zm24.66783 -3.765625l0 11.406249l-1.421875 0l-0.25 -1.609375l-0.09375 0q-0.34375 0.59375 -0.90625 1.0q-0.5625 0.40625 -1.265625 0.609375q-0.703125 0.203125 -1.5 0.203125q-1.359375 0 -2.28125 -0.4375q-0.90625 -0.4375 -1.375 -1.34375q-0.453125 -0.921875 -0.453125 -2.359375l0 -7.468749l1.75 0l0 7.343749q0 1.421875 0.640625 2.125q0.640625 0.703125 1.96875 0.703125q1.265625 0 2.015625 -0.46875q0.765625 -0.484375 1.09375 -1.40625q0.34375 -0.9375 0.34375 -2.296875l0 -5.999999l1.734375 0zm8.048889 -0.21875q1.453125 0 2.5 0.65625q1.046875 0.640625 1.59375 1.796875q0.546875 1.15625 0.546875 2.718749l0 1.0625l-7.875 0q0.03125 2.015625 1.0 3.078125q0.96875 1.046875 2.71875 1.046875q1.09375 0 1.921875 -0.203125q0.828125 -0.203125 1.734375 -0.578125l0 1.515625q-0.875 0.390625 -1.71875 0.5625q-0.84375 0.171875 -2.0 0.171875q-1.65625 0 -2.875 -0.671875q-1.21875 -0.671875 -1.90625 -1.96875q-0.671875 -1.296875 -0.671875 -3.1875q0 -1.843749 0.609375 -3.187499q0.625 -1.359375 1.75 -2.078125q1.140625 -0.734375 2.671875 -0.734375zm-0.015625 1.421875q-1.390625 0 -2.21875 0.90625q-0.8125 0.90625 -0.96875 2.53125l6.03125 0q0 -1.03125 -0.3125 -1.796875q-0.3125 -0.78125 -0.9375 -1.203125q-0.625 -0.4375 -1.59375 -0.4375zm17.023117 -1.203125l0 11.406249l-1.421875 0l-0.25 -1.609375l-0.09375 0q-0.34375 0.59375 -0.90625 1.0q-0.5625 0.40625 -1.265625 0.609375q-0.703125 0.203125 -1.5 0.203125q-1.359375 0 -2.28125 -0.4375q-0.90625 -0.4375 -1.375 -1.34375q-0.453125 -0.921875 -0.453125 -2.359375l0 -7.468749l1.75 0l0 7.343749q0 1.421875 0.640625 2.125q0.640625 0.703125 1.96875 0.703125q1.265625 0 2.015625 -0.46875q0.765625 -0.484375 1.09375 -1.40625q0.34375 -0.9375 0.34375 -2.296875l0 -5.999999l1.734375 0zm8.048889 -0.21875q1.453125 0 2.5 0.65625q1.046875 0.640625 1.59375 1.796875q0.546875 1.15625 0.546875 2.718749l0 1.0625l-7.875 0q0.03125 2.015625 1.0 3.078125q0.96875 1.046875 2.71875 1.046875q1.09375 0 1.921875 -0.203125q0.828125 -0.203125 1.734375 -0.578125l0 1.515625q-0.875 0.390625 -1.71875 0.5625q-0.84375 0.171875 -2.0 0.171875q-1.65625 0 -2.875 -0.671875q-1.21875 -0.671875 -1.90625 -1.96875q-0.671875 -1.296875 -0.671875 -3.1875q0 -1.843749 0.609375 -3.187499q0.625 -1.359375 1.75 -2.078125q1.140625 -0.734375 2.671875 -0.734375zm-0.015625 1.421875q-1.390625 0 -2.21875 0.90625q-0.8125 0.90625 -0.96875 2.53125l6.03125 0q0 -1.03125 -0.3125 -1.796875q-0.3125 -0.78125 -0.9375 -1.203125q-0.625 -0.4375 -1.59375 -0.4375zm18.079056 10.203124l-1.78125 0l0 -13.656249l-4.796875 0l0 -1.5625005l11.34375 0l0 1.5625005l-4.765625 0l0 13.656249zm8.528381 -11.406249l0 11.406249l-1.71875 0l0 -11.406249l1.71875 0zm-0.84375 -4.2812505q0.4375 0 0.734375 0.28125q0.3125 0.28125 0.3125 0.8593755q0 0.578125 -0.3125 0.859375q-0.296875 0.28125 -0.734375 0.28125q-0.4375 0 -0.734375 -0.28125q-0.296875 -0.28125 -0.296875 -0.859375q0 -0.5781255 0.296875 -0.8593755q0.296875 -0.28125 0.734375 -0.28125zm16.899734 4.0625005q1.8750076 0 2.8281326 0.984375q0.96875 0.984375 0.96875 3.15625l0 7.484374l-1.703125 0l0 -7.390624q0 -1.390625 -0.609375 -2.078125q-0.5937576 -0.703125 -1.7656326 -0.703125q-1.65625 0 -2.40625 0.96875q-0.75 0.953125 -0.75 2.812499l0 6.390625l-1.71875 0l0 -7.390624q0 -0.9375 -0.265625 -1.546875q-0.265625 -0.609375 -0.796875 -0.921875q-0.515625 -0.3125 -1.328125 -0.3125q-1.125 0 -1.8125 0.46875q-0.6875 0.46875 -1.0 1.390625q-0.3125 0.921875 -0.3125 2.265624l0 6.046875l-1.71875 0l0 -11.406249l1.390625 0l0.265625 1.609375l0.09375 0q0.34375 -0.59375 0.859375 -1.0q0.515625 -0.40625 1.15625 -0.609375q0.65625 -0.21875 1.390625 -0.21875q1.296875 0 2.171875 0.484375q0.890625 0.484375 1.28125 1.46875l0.09375 0q0.5625 -0.984375 1.53125 -1.46875q0.984375 -0.484375 2.15625 -0.484375zm11.745186 0q1.453125 0 2.5 0.65625q1.046875 0.640625 1.59375 1.796875q0.546875 1.15625 0.546875 2.718749l0 1.0625l-7.875 0q0.03125 2.015625 1.0 3.078125q0.96875 1.046875 2.71875 1.046875q1.09375 0 1.921875 -0.203125q0.828125 -0.203125 1.734375 -0.578125l0 1.515625q-0.875 0.390625 -1.71875 0.5625q-0.84375 0.171875 -2.0 0.171875q-1.65625 0 -2.875 -0.671875q-1.21875 -0.671875 -1.90625 -1.96875q-0.671875 -1.296875 -0.671875 -3.1875q0 -1.843749 0.609375 -3.187499q0.625 -1.359375 1.75 -2.078125q1.140625 -0.734375 2.671875 -0.734375zm-0.015625 1.421875q-1.390625 0 -2.21875 0.90625q-0.8125 0.90625 -0.96875 2.53125l6.03125 0q0 -1.03125 -0.3125 -1.796875q-0.3125 -0.78125 -0.9375 -1.203125q-0.625 -0.4375 -1.59375 -0.4375zm14.976242 7.078124q0 1.09375 -0.546875 1.84375q-0.546875 0.734375 -1.5625 1.109375q-1.015625 0.375 -2.421875 0.375q-1.1875 0 -2.0625 -0.1875q-0.875 -0.1875 -1.53125 -0.53125l0 -1.59375q0.6875 0.34375 1.65625 0.625q0.96875 0.28125 1.984375 0.28125q1.484375 0 2.140625 -0.46875q0.671875 -0.484375 0.671875 -1.3125q0 -0.46875 -0.265625 -0.828125q-0.265625 -0.359375 -0.890625 -0.6875q-0.625 -0.34375 -1.734375 -0.75q-1.09375 -0.421875 -1.890625 -0.828125q-0.796875 -0.40625 -1.234375 -0.99999905q-0.421875 -0.59375 -0.421875 -1.546875q0 -1.453125 1.171875 -2.21875q1.171875 -0.78125 3.078125 -0.78125q1.03125 0 1.921875 0.203125q0.90625 0.203125 1.6875 0.546875l-0.578125 1.390625q-0.703125 -0.3125 -1.515625 -0.515625q-0.796875 -0.203125 -1.625 -0.203125q-1.203125 0 -1.84375 0.390625q-0.640625 0.390625 -0.640625 1.078125q0 0.53125 0.296875 0.875q0.296875 0.34375 0.953125 0.65625q0.65625 0.296875 1.734375 0.70312405q1.0625 0.390625 1.84375 0.8125q0.78125 0.421875 1.203125 1.03125q0.421875 0.59375 0.421875 1.53125z" fill-rule="nonzero"/></g></svg>