<?xml version="1.0" encoding="UTF-8"?>
<svg id="Layer_1" data-name="Layer 1" xmlns="http://www.w3.org/2000/svg" xmlns:xlink="http://www.w3.org/1999/xlink" viewBox="0 0 472.47 134.69">
  <defs>
    <style>
      .cls-1 {
        fill: url(#linear-gradient-2);
      }

      .cls-2 {
        fill: url(#linear-gradient);
      }

      .cls-3 {
        fill: #003c71;
      }
    </style>
    <linearGradient id="linear-gradient" x1="0" y1="42.22" x2="158.85" y2="42.22" gradientUnits="userSpaceOnUse">
      <stop offset=".15" stop-color="#26addf"/>
      <stop offset=".85" stop-color="#005d9d"/>
    </linearGradient>
    <linearGradient id="linear-gradient-2" x1="13215.88" y1="554.7" x2="13374.73" y2="554.7" gradientTransform="translate(13395.74 647.18) rotate(-180)" xlink:href="#linear-gradient"/>
  </defs>
  <g>
    <path class="cls-2" d="M81.65,84.44l-13.9-13.94s-2.59-3.11,0-6.46l18.27-18.31s1.92-1.89,4.47-1.89c.03.03,68.37.1,68.37.1L115.01.03l-47.62-.03s-2.79.28-4.54,2.1L1.5,63.44s-3.28,3.74-.14,7.34l13.59,13.63,66.69.03Z"/>
    <path class="cls-1" d="M98.22,50.25l13.9,13.94s2.59,3.11,0,6.46l-18.27,18.31s-1.92,1.89-4.47,1.89c-.03-.03-68.37-.1-68.37-.1l43.84,43.91,47.62.03s2.79-.28,4.54-2.1l61.35-61.35s3.28-3.74.14-7.34l-13.59-13.63-66.69-.03Z"/>
  </g>
  <g>
    <g>
      <path class="cls-3" d="M236.68,34.82c-7.8,0-20.44,0-26.56-.59.2.99.39,1.88.39,3.46,0,1.48-.2,2.37-.39,3.46,4.35-.89,11.55-1.28,21.92-1.38.1,6.71.2,15.21.2,24.19,0,13.33-.3,27.75-1.09,38.61.89-.2,2.86-.59,5.13-.59.79,0,2.96.1,6.32.59-1.09-14.91-.69-30.42-.69-42.37,0-6.72.1-13.63.2-20.44,11.85.1,17.97.79,21.04,1.38-.2-1.09-.4-1.98-.4-3.46s.2-2.57.4-3.46c-6.32.59-16.79.59-26.47.59Z"/>
      <path class="cls-3" d="M230.52,103.3l.06-.77c.7-9.62,1.08-23.32,1.08-38.57,0-7.19-.06-14.71-.19-23.61-10.49.11-17.24.55-21.24,1.36l-.83.17.22-1.18c.17-.93.32-1.74.32-3.01,0-1.44-.17-2.28-.35-3.18l-.18-.92.77.07c6.09.59,18.87.59,26.51.59,9.43,0,20.12,0,26.41-.59l.79-.07-.17.77c-.2.89-.38,1.92-.38,3.33,0,1.27.15,2.07.32,3.01l.21,1.18-.83-.16c-2.9-.56-8.78-1.25-20.36-1.37-.09,6.53-.19,13.27-.19,19.86,0,2.41-.02,4.96-.03,7.63-.07,10.69-.14,22.81.72,34.7l.05.72-.71-.1c-2.94-.43-5.2-.59-6.24-.59-1.58,0-3.31.2-5.01.58l-.76.17ZM236.28,101.4c.37,0,2.27.03,5.69.5-.81-11.7-.74-23.57-.67-34.08.02-2.66.03-5.21.03-7.62,0-6.79.1-13.73.2-20.45v-.57s.58,0,.58,0c11.03.09,17.07.7,20.31,1.24-.14-.79-.25-1.6-.25-2.74s.11-2.05.25-2.82c-6.39.53-16.22.53-25.75.53-7.35,0-19.45,0-25.85-.53.14.76.26,1.58.26,2.81,0,1.14-.11,1.95-.25,2.73,4.25-.75,10.86-1.14,21.2-1.23h.57s0,.57,0,.57c.14,9.16.2,16.86.2,24.2,0,14.88-.37,28.29-1.03,37.9,1.54-.3,3.08-.45,4.51-.45Z"/>
    </g>
    <g>
      <path class="cls-3" d="M362.33,34.82c-1.28,0-2.67,0-4.25-.59-3.16,15.21-6.12,24.1-10.07,35.65l-7.11,20.54c-1.88-5.43-11.16-32.49-14.52-43.16-1.88-6.12-2.76-9.48-3.65-13.04-1.09.3-1.78.59-3.75.59-2.07,0-2.96-.3-4.15-.59-1.88,8.69-7.6,26.47-10.86,35.65l-7.21,20.54c-4.25-12.94-12.84-39.9-16.49-56.19-.59.1-4.05.59-6.91.59-2.27,0-4.05-.3-5.14-.59,7.8,19.36,17.38,51.45,21.73,68.34,1.78-.59,3.55-.59,4.15-.59.79,0,2.57.1,4.35.59.69-2.77,1.09-4.25,1.78-6.22,2.67-8.79,14.02-41.18,16.49-48,1.78,5.04,13.83,38.61,17.78,54.22,1.58-.59,3.46-.59,4.05-.59.89,0,2.96.1,3.95.59,1.28-4.54,2.27-8,5.53-17.38,8.49-24.89,14.81-40.89,18.86-50.96-.59.2-1.78.59-4.54.59Z"/>
      <path class="cls-3" d="M342.85,103.39l-.62-.31c-.73-.36-2.43-.53-3.69-.53-.58,0-2.36,0-3.85.56l-.6.23-.16-.62c-2.42-9.57-8.21-27.26-17.2-52.59l-.02-.06c-3.28,9.17-13.44,38.23-15.94,46.45-.7,2.01-1.1,3.49-1.77,6.19l-.14.57-.57-.16c-1.96-.54-3.83-.57-4.19-.57-.56,0-2.28,0-3.97.56l-.59.2-.15-.6c-4.26-16.56-13.81-48.69-21.7-68.27l-.43-1.08,1.12.31c.63.17,2.38.57,4.98.57,2.74,0,6.12-.47,6.82-.59l.54-.09.12.53c3.62,16.16,11.99,42.4,15.95,54.52l6.65-18.94c3.26-9.18,8.95-26.84,10.84-35.58l.13-.58.97.25c.99.26,1.84.48,3.61.48,1.6,0,2.28-.2,3.14-.44l1.03-.29.14.57c.95,3.82,1.86,7.17,3.65,13.01,3.07,9.74,11.17,33.42,13.97,41.56l6.57-18.97c4.22-12.35,7-20.9,10.05-35.58l.14-.66.63.24c1.48.56,2.78.56,4.04.56,2.67,0,3.81-.38,4.36-.56l1.18-.39-.46,1.16c-4.82,11.98-10.82,27.4-18.85,50.93-3.31,9.54-4.29,12.99-5.52,17.35l-.19.67ZM294.09,101.4c.35,0,2.04.02,3.93.47.6-2.39.99-3.83,1.65-5.71,2.65-8.75,14.01-41.15,16.49-48l.55-1.51,1.1,3.1c8.82,24.84,14.56,42.36,17.08,52.09,1.51-.43,3.08-.43,3.64-.43.41,0,2.26.02,3.57.41,1.16-4.11,2.2-7.68,5.37-16.81,7.8-22.85,13.69-38.07,18.44-49.91-.77.16-1.9.31-3.58.31-1.13,0-2.4,0-3.81-.42-3.01,14.36-5.78,22.87-9.96,35.09l-7.66,22.12-.54-1.57c-2.08-6.03-11.21-32.67-14.52-43.17-1.71-5.57-2.61-8.89-3.52-12.49-.83.24-1.65.45-3.34.45-1.8,0-2.76-.22-3.71-.46-2.02,8.98-7.56,26.13-10.75,35.14l-7.77,22.14-.53-1.61c-3.66-11.15-12.52-38.71-16.39-55.72-1.27.18-4.07.52-6.47.52-1.8,0-3.21-.18-4.19-.36,7.74,19.48,16.93,50.35,21.19,66.81,1.65-.44,3.2-.44,3.74-.44Z"/>
    </g>
    <g>
      <path class="cls-3" d="M410.03,69.09c-4.13-2.86-5.47-3.56-18.34-7.7-6.02-1.98-13.82-4.64-13.82-12.44,0-3.46,2.24-11.36,15.12-11.36,10.86,0,14.88,5.43,16.42,9.18h1.65c.35-3.36,2.48-7.31,3.43-8.79-2.83-1.58-10.87-4.54-20.08-4.54-13.94,0-25.31,6.42-25.31,19.16,0,4.54,1.89,9.48,5.91,12.25,3.19,2.37,3.81,2.86,17.63,7.7,7.91,2.67,14.64,5.63,14.64,13.63,0,6.32-5.08,13.13-17.48,13.13-9.33,0-16.3-4.35-19.72-10.27h-1.54c-.12,1.28-.35,4.25-2.13,9.28,6.14,3.85,13.7,5.43,21.49,5.43,21.02,0,28.73-11.75,28.73-22.02,0-3.75-1.18-8.99-6.61-12.64Z"/>
      <path class="cls-3" d="M387.91,104.33c-8.63,0-15.96-1.86-21.8-5.52l-.39-.24.15-.44c1.7-4.84,1.96-7.68,2.09-9.04l.06-.62h2.39l.17.29c3.61,6.25,10.8,9.98,19.22,9.98s16.9-3.88,16.9-12.56c0-7.66-6.45-10.46-14.25-13.08-13.83-4.84-14.51-5.34-17.74-7.75-3.83-2.64-6.19-7.52-6.19-12.75,0-11.99,10.16-19.73,25.88-19.73,8.86,0,17.03,2.76,20.36,4.61l.53.3-.33.51c-1.01,1.58-3.01,5.41-3.34,8.54l-.05.51h-2.56l-.15-.36c-1.65-4.03-5.74-8.83-15.88-8.83-14.13,0-14.54,9.68-14.54,10.78,0,7.49,7.76,10.04,13.42,11.9,12.74,4.1,14.19,4.8,18.48,7.78,5.67,3.82,6.86,9.24,6.86,13.12,0,10.42-7.68,22.6-29.31,22.6ZM367.11,98.07c5.59,3.39,12.58,5.1,20.8,5.1,20.78,0,28.16-11.55,28.16-21.45,0-3.6-1.1-8.63-6.36-12.16h0c-4.01-2.79-5.18-3.44-18.19-7.63-5.66-1.86-14.22-4.66-14.22-12.99,0-1.22.44-11.93,15.69-11.93,10.49,0,14.92,4.91,16.8,9.18h.76c.44-2.91,2.02-6.15,3.12-7.99-2.78-1.39-10.26-4.19-19.26-4.19-15.02,0-24.73,7.29-24.73,18.58,0,4.86,2.17,9.37,5.66,11.77,3.18,2.37,3.83,2.85,17.49,7.63,7.92,2.67,15.03,5.76,15.03,14.17,0,6.82-5.58,13.71-18.05,13.71-8.71,0-16.18-3.83-20.05-10.27h-.68c-.14,1.43-.5,4.21-1.95,8.46Z"/>
    </g>
    <g>
      <path class="cls-3" d="M471.69,96.05c-15.94,1.18-27.79,1.18-36.44,1.18-.14-2.67-.41-10.17-.41-15.31,0-4.25.14-8.69.27-12.94,3.38-.1,7.3-.2,10.94-.2,5.81,0,14.83.3,21.85.99-.14-1.09-.54-1.98-.54-3.06,0-1.38.27-2.27.54-3.36-10.54.89-22.12.79-32.79.69-.14-5.23-.14-6.42-.14-12.84,0-5.83,0-7.51.27-11.36,5.81-.2,8.24-.2,13.1-.2,11.75,0,17.39.59,22.39,1.28-.27-.99-.54-1.78-.54-3.16,0-1.28.27-2.37.54-3.46-6.89.49-14.55.59-21.44.59-9.45,0-15.13,0-24.59-.59.81,9.68,1.08,23.01,1.08,32.89,0,21.53-.68,27.95-1.49,35.35,10.4-.3,17.29-.59,27.69-.59,6.21,0,13.47,0,19.69.59-.27-.99-.54-1.78-.54-3.16s.27-2.27.54-3.36Z"/>
      <path class="cls-3" d="M472.47,103.22l-.83-.08c-6.19-.59-13.33-.59-19.63-.59-8.2,0-14.07.18-21.51.41-1.94.06-3.98.12-6.17.18l-.66.02.07-.66c.8-7.27,1.48-13.54,1.48-35.29,0-4.68-.08-20.88-1.08-32.84l-.06-.66.67.04c9.44.59,15.13.59,24.55.59,6.13,0,14.1-.07,21.4-.59l.79-.06-.19.77c-.27,1.08-.52,2.1-.52,3.32,0,1.15.2,1.86.43,2.68l.32,1.17-.87-.12c-4.68-.65-10.25-1.28-22.31-1.28-4.7,0-7.14,0-12.56.18-.23,3.48-.23,5.31-.23,10.8,0,6.2,0,7.51.12,12.27,10.25.1,21.78.18,32.18-.69l.8-.07-.29,1.15c-.23.91-.43,1.7-.43,2.85,0,.57.13,1.09.27,1.65.1.42.21.86.27,1.34l.09.72-.72-.07c-6.92-.68-15.93-.98-21.79-.98-3.48,0-7.17.09-10.38.18-.14,4.43-.25,8.44-.25,12.38,0,4.78.24,11.67.38,14.73,8.59,0,20.26-.03,35.85-1.18l.79-.06-.28,1.13c-.23.91-.43,1.7-.43,2.86s.2,1.86.43,2.68l.31,1.13ZM425.34,34.94c.95,11.93,1.03,27.66,1.03,32.27,0,21.15-.65,27.72-1.42,34.76,1.94-.06,3.76-.11,5.5-.17,7.15-.22,13.32-.41,21.54-.41,6.05,0,12.87,0,18.91.52-.19-.71-.34-1.45-.34-2.51s.17-1.92.36-2.72c-15.56,1.13-27.17,1.13-35.68,1.13h-.55l-.03-.55c-.14-2.71-.41-10.22-.41-15.34,0-4.12.12-8.3.27-12.96l.02-.54.54-.02c3.34-.1,7.26-.2,10.96-.2,5.68,0,14.3.28,21.15.92-.04-.16-.08-.32-.12-.49-.15-.6-.3-1.22-.3-1.93,0-1.11.16-1.92.36-2.72-10.43.83-21.9.72-32.04.63h-.56s-.01-.56-.01-.56c-.14-5.24-.14-6.4-.14-12.85,0-5.78,0-7.52.27-11.4l.04-.52.52-.02c5.82-.2,8.26-.2,13.12-.2,11.4,0,17.05.56,21.6,1.17-.18-.69-.33-1.43-.33-2.47s.17-1.96.37-2.83c-7.12.48-14.77.54-20.7.54-9.22,0-14.88,0-23.96-.55Z"/>
    </g>
  </g>
</svg>