<?xml version="1.0" encoding="UTF-8" standalone="no"?>
<svg
   inkscape:version="1.4 (86a8ad7, 2024-10-11)"
   height="164.18001"
   width="715.78998"
   sodipodi:docname="opeclogo.svg"
   xml:space="preserve"
   viewBox="0 0 715.78997 164.18"
   y="0px"
   x="0px"
   id="Layer_1"
   version="1.1"
   xmlns:inkscape="http://www.inkscape.org/namespaces/inkscape"
   xmlns:sodipodi="http://sodipodi.sourceforge.net/DTD/sodipodi-0.dtd"
   xmlns="http://www.w3.org/2000/svg"
   xmlns:svg="http://www.w3.org/2000/svg"
   xmlns:rdf="http://www.w3.org/1999/02/22-rdf-syntax-ns#"
   xmlns:cc="http://creativecommons.org/ns#"
   xmlns:dc="http://purl.org/dc/elements/1.1/"><metadata
   id="metadata121"><rdf:RDF><cc:Work
       rdf:about=""><dc:format>image/svg+xml</dc:format><dc:type
         rdf:resource="http://purl.org/dc/dcmitype/StillImage" /><dc:title /></cc:Work></rdf:RDF></metadata><defs
   id="defs119" /><sodipodi:namedview
   fit-margin-bottom="0"
   fit-margin-right="0"
   fit-margin-left="0"
   fit-margin-top="0"
   inkscape:current-layer="Layer_1"
   inkscape:window-maximized="1"
   inkscape:window-y="-11"
   inkscape:window-x="-11"
   inkscape:cy="54.871051"
   inkscape:cx="454.76155"
   inkscape:zoom="2.469426"
   showgrid="false"
   id="namedview117"
   inkscape:window-height="2054"
   inkscape:window-width="3840"
   inkscape:pageshadow="2"
   inkscape:pageopacity="0"
   guidetolerance="10"
   gridtolerance="10"
   objecttolerance="10"
   borderopacity="1"
   bordercolor="#666666"
   pagecolor="#ffffff"
   inkscape:showpageshadow="2"
   inkscape:pagecheckerboard="0"
   inkscape:deskcolor="#d1d1d1" />
<style
   id="style2"
   type="text/css">
	.st0{fill:#00AEEF;}
</style>
<g
   transform="translate(-57.700001,-169.45)"
   id="g22">
	<g
   id="g20">
		<ellipse
   id="ellipse4"
   ry="37.73"
   rx="37.509998"
   cy="207.19"
   cx="95.209999"
   class="st0" />
		<g
   id="g8">
			<path
   id="path6"
   d="m 125.18,314.09 c -3.98,-1.32 -6.83,-4.97 -6.83,-9.26 0,-5.39 4.52,-9.77 10.1,-9.77 2,0 3.87,0.55 5.44,1.52 l 0.01,0.02 c 0.49,-2.42 0.74,-4.92 0.74,-7.49 0,-1.66 -0.1,-3.29 -0.31,-4.89 l 0.01,-0.06 c -1.66,1.14 -3.69,1.82 -5.89,1.82 -5.58,0 -10.1,-4.38 -10.1,-9.78 0,-4.98 3.85,-9.08 8.83,-9.69 l 0.01,-0.06 c -6.84,-9.18 -17.76,-15.07 -30.06,-15.07 -20.72,0 -37.51,16.9 -37.51,37.73 0,20.84 16.79,37.73 37.51,37.73 11.17,0 21.2,-4.91 28.07,-12.71 z"
   class="st0" />
		</g>
		<g
   id="g14">
			<g
   id="g12">
				<path
   id="path10"
   d="m 227.16,310.39 c -6.4,-3.05 -10.82,-9.61 -10.82,-17.2 0,-8.99 5.33,-16.53 13.68,-18.51 l -0.02,0.04 c -5.63,-13.71 -18.15,-23.34 -33.81,-23.34 -20.71,0 -37.51,16.9 -37.51,37.73 0,20.84 16.8,37.73 37.51,37.73 12.89,0 24.25,-6.52 31,-16.47 z"
   class="st0" />
			</g>
		</g>
		<path
   id="path16"
   d="m 156.64,220.1 -1.73,105.74 -0.14,0.13 c 0,3.8 -2.63,7.65 -6.36,7.65 -3.72,0 -6.53,-3.85 -6.53,-7.65 l 0.04,0.14 -5.19,-154.23 h 23.02 l -0.06,0.13 -1.14,17.79 -0.07,-0.04 c 6.26,-12.07 18.81,-20.31 33.28,-20.31 20.72,0 37.51,16.9 37.51,37.73 0,20.83 -16.79,37.73 -37.51,37.73 -16.18,0 -29.97,-10.32 -35.23,-24.77 z"
   class="st0" />
		<line
   id="line18"
   y2="310.42001"
   x2="227.46001"
   y1="310.04001"
   x1="226.52"
   class="st0" />
	</g>
</g>
<g
   transform="translate(-57.700001,-169.45)"
   id="g112"
   style="fill:#ffffff">
	<path
   id="path24"
   d="m 306.56,281.68 c -7.29,0 -10.88,-5.62 -10.88,-13.21 0,-8.44 4.29,-13.17 10.69,-13.17 7.22,0 10.69,5.74 10.69,13.21 0.01,7.99 -3.84,13.17 -10.5,13.17 z m -0.22,-23.09 c -4.29,0 -5.92,3.48 -5.92,9.62 0,6.59 1.67,10.25 6.03,10.25 3.81,0 5.77,-2.81 5.77,-9.69 0,-6.26 -1.29,-10.18 -5.88,-10.18 z"
   class="st0"
   style="fill:#ffffff" />
	<path
   id="path26"
   d="m 330.43,266.1 c -0.41,-0.15 -0.7,-0.26 -1.15,-0.26 -1.7,0 -3.15,1.26 -3.52,2.78 v 12.65 h -4.07 v -13.21 c 0,-2.37 -0.26,-3.89 -0.67,-5.03 l 3.74,-0.96 c 0.44,0.85 0.7,1.92 0.7,2.96 1.48,-2.04 2.96,-3 4.77,-3 0.59,0 0.96,0.07 1.44,0.3 z"
   class="st0"
   style="fill:#ffffff" />
	<path
   id="path28"
   d="m 348.26,265.55 c -0.89,0 -1.44,-0.22 -1.44,-0.22 0,0 1.22,1.26 1.22,3.29 0,3.26 -2.7,5.74 -7.1,5.74 -1.33,0.48 -2.52,1.18 -2.52,1.78 0,0.7 0.26,0.78 4.66,0.78 3,0 6.22,1.52 6.22,5.33 0,4 -3.33,6.14 -8.33,6.14 -4.85,0 -8.36,-1.59 -8.36,-5.11 0,-0.89 0.37,-2 0.37,-2 h 3.85 c 0,0 -0.3,0.74 -0.3,1.33 0,1.74 1.48,2.7 4.11,2.7 2.89,0 4.44,-1.18 4.44,-2.92 0,-2.04 -1.7,-2.59 -5.18,-2.59 -5.03,0 -6.14,-1 -6.14,-2.85 0,-1.85 1.55,-2.59 3.55,-3.22 -2.81,-0.81 -4.25,-2.63 -4.25,-5.29 0,-3.81 3,-6.33 7.47,-6.33 2.66,0 4.18,0.96 5.7,0.96 1.22,0 2.37,-0.44 3.4,-1.3 l 1.89,2.55 c -1.04,0.89 -2,1.23 -3.26,1.23 z m -7.77,-0.37 c -2.07,0 -3.22,1.15 -3.22,3.26 0,2.15 1.22,3.15 3.22,3.15 2.11,0 3.22,-1.11 3.22,-3.18 0,-2.12 -1.07,-3.23 -3.22,-3.23 z"
   class="st0"
   style="fill:#ffffff" />
	<path
   id="path30"
   d="m 366.17,282.05 c -1.15,-0.44 -2.11,-1.33 -2.55,-2.52 -1.52,1.7 -3.14,2.29 -5.14,2.29 -4.29,0 -6.22,-2.37 -6.22,-5.62 0,-4.33 3.26,-6.51 9.25,-6.51 h 1.26 v -1 c 0,-2.15 -0.37,-3.29 -2.59,-3.29 -2.7,0 -5.59,2.15 -5.59,2.15 l -1.81,-2.92 c 2.81,-1.78 5.14,-2.55 7.96,-2.55 2.92,0 4.88,1.07 5.7,3.11 0.33,0.81 0.33,1.81 0.3,4.59 l -0.07,5.37 c -0.04,2.52 0.19,3.33 1.63,4.33 z m -4.22,-9.62 c -4.07,0 -5.29,1.18 -5.29,3.55 0,1.78 0.96,2.89 2.59,2.89 1.29,0 2.55,-0.78 3.37,-1.96 l 0.07,-4.44 c 0,-0.01 -0.44,-0.04 -0.74,-0.04 z"
   class="st0"
   style="fill:#ffffff" />
	<path
   id="path32"
   d="m 382.86,281.27 v -12.43 c 0,-2.55 -0.59,-3.26 -2.15,-3.26 -1.18,0 -2.89,0.89 -4.11,2.11 v 13.58 h -4 V 267.5 c 0,-1.96 -0.18,-3.11 -0.7,-4.44 l 3.7,-1.04 c 0.44,0.85 0.67,1.67 0.67,2.66 2,-1.7 3.74,-2.59 5.74,-2.59 2.89,0 4.88,1.74 4.88,5.18 v 13.99 h -4.03 z"
   class="st0"
   style="fill:#ffffff" />
	<path
   id="path34"
   d="m 394.84,259.77 c -1.48,0 -2.63,-1.22 -2.63,-2.7 0,-1.52 1.18,-2.74 2.7,-2.74 1.44,0 2.66,1.18 2.66,2.74 0.01,1.48 -1.21,2.7 -2.73,2.7 z m -2.03,21.5 v -18.43 l 4.11,-0.74 v 19.17 z"
   class="st0"
   style="fill:#ffffff" />
	<path
   id="path36"
   d="m 414.38,281.27 h -13.21 v -2.7 l 9.4,-13.14 h -8.66 v -2.89 h 13.25 v 2.89 l -8.88,12.99 h 9.29 z"
   class="st0"
   style="fill:#ffffff" />
	<path
   id="path38"
   d="m 431.88,282.05 c -1.15,-0.44 -2.11,-1.33 -2.55,-2.52 -1.52,1.7 -3.14,2.29 -5.14,2.29 -4.29,0 -6.22,-2.37 -6.22,-5.62 0,-4.33 3.26,-6.51 9.25,-6.51 h 1.26 v -1 c 0,-2.15 -0.37,-3.29 -2.59,-3.29 -2.7,0 -5.59,2.15 -5.59,2.15 l -1.81,-2.92 c 2.81,-1.78 5.14,-2.55 7.95,-2.55 2.92,0 4.88,1.07 5.7,3.11 0.33,0.81 0.33,1.81 0.29,4.59 l -0.07,5.37 c -0.04,2.52 0.18,3.33 1.63,4.33 z m -4.22,-9.62 c -4.07,0 -5.29,1.18 -5.29,3.55 0,1.78 0.96,2.89 2.59,2.89 1.3,0 2.55,-0.78 3.37,-1.96 l 0.07,-4.44 c 0,-0.01 -0.44,-0.04 -0.74,-0.04 z"
   class="st0"
   style="fill:#ffffff" />
	<path
   id="path40"
   d="m 443.2,281.75 c -3.63,0 -4.88,-2.15 -4.88,-4.81 v -11.58 h -2.07 v -2.81 h 2.07 c 0,-1.59 0,-3.22 0.19,-4.63 l 4.18,-1 c -0.18,1.52 -0.33,3.77 -0.33,5.62 h 4.48 l -1.07,2.81 h -3.44 v 10.51 c 0,2.33 0.52,3 2.29,3 0.55,0 1.04,-0.11 1.74,-0.37 l 0.52,2.44 c -1.24,0.56 -2.42,0.82 -3.68,0.82 z"
   class="st0"
   style="fill:#ffffff" />
	<path
   id="path42"
   d="m 452.6,259.77 c -1.48,0 -2.63,-1.22 -2.63,-2.7 0,-1.52 1.18,-2.74 2.7,-2.74 1.44,0 2.66,1.18 2.66,2.74 0.01,1.48 -1.21,2.7 -2.73,2.7 z m -2.04,21.5 v -18.43 l 4.11,-0.74 v 19.17 z"
   class="st0"
   style="fill:#ffffff" />
	<path
   id="path44"
   d="m 467.55,281.75 c -5.07,0 -8.25,-3.81 -8.25,-9.81 0,-5.99 3.22,-9.84 8.18,-9.84 5.33,0 8.36,3.96 8.36,9.88 0,6.04 -3.22,9.77 -8.29,9.77 z m -0.04,-16.57 c -2.59,0 -3.7,1.96 -3.7,6.51 0,5.44 1.37,7.03 3.81,7.03 2.4,0 3.74,-1.96 3.74,-6.66 0,-5.29 -1.48,-6.88 -3.85,-6.88 z"
   class="st0"
   style="fill:#ffffff" />
	<path
   id="path46"
   d="m 490.71,281.27 v -12.43 c 0,-2.55 -0.59,-3.26 -2.15,-3.26 -1.18,0 -2.89,0.89 -4.11,2.11 v 13.58 h -4 V 267.5 c 0,-1.96 -0.19,-3.11 -0.7,-4.44 l 3.7,-1.04 c 0.45,0.85 0.67,1.67 0.67,2.66 2,-1.7 3.74,-2.59 5.74,-2.59 2.89,0 4.88,1.74 4.88,5.18 v 13.99 h -4.03 z"
   class="st0"
   style="fill:#ffffff" />
	<path
   id="path48"
   d="m 515.94,281.75 c -5.07,0 -8.25,-3.81 -8.25,-9.81 0,-5.99 3.22,-9.84 8.18,-9.84 5.33,0 8.36,3.96 8.36,9.88 0,6.04 -3.22,9.77 -8.29,9.77 z m -0.04,-16.57 c -2.59,0 -3.7,1.96 -3.7,6.51 0,5.44 1.37,7.03 3.81,7.03 2.4,0 3.74,-1.96 3.74,-6.66 0,-5.29 -1.48,-6.88 -3.85,-6.88 z"
   class="st0"
   style="fill:#ffffff" />
	<path
   id="path50"
   d="m 537.4,257.74 c -0.92,-0.44 -1.48,-0.67 -2.26,-0.67 -1.41,0 -2.29,0.96 -2.29,2.63 v 2.85 h 4.88 l -1.04,2.81 h -3.81 v 15.91 h -4.03 v -15.91 h -1.74 v -2.81 h 1.81 c 0,0 -0.11,-1.04 -0.11,-2.78 0,-3.89 2.37,-5.7 5.7,-5.7 1.59,0 2.92,0.33 4.22,1.07 z"
   class="st0"
   style="fill:#ffffff" />
	<path
   id="path52"
   d="m 553.05,281.75 c -3.62,0 -4.88,-2.15 -4.88,-4.81 v -11.58 h -2.07 v -2.81 h 2.07 c 0,-1.59 0,-3.22 0.19,-4.63 l 4.18,-1 c -0.19,1.52 -0.33,3.77 -0.33,5.62 h 4.48 l -1.07,2.81 h -3.44 v 10.51 c 0,2.33 0.52,3 2.29,3 0.55,0 1.04,-0.11 1.74,-0.37 l 0.52,2.44 c -1.24,0.56 -2.42,0.82 -3.68,0.82 z"
   class="st0"
   style="fill:#ffffff" />
	<path
   id="path54"
   d="m 571.4,281.27 v -12.73 c 0,-2.33 -0.81,-3 -2.37,-3 -1.44,0 -3.18,0.93 -4.51,2.29 v 13.43 h -4.11 V 259 c 0,-1.67 -0.15,-3.11 -0.37,-4.07 l 4.11,-0.89 c 0.26,1.07 0.37,2.59 0.37,4.4 v 4 c 0,1.18 -0.07,2.11 -0.07,2.11 1.85,-1.67 3.74,-2.44 5.73,-2.44 2.22,0 3.92,1.07 4.55,2.29 0.48,0.92 0.63,1.78 0.63,3.66 v 13.21 z"
   class="st0"
   style="fill:#ffffff" />
	<path
   id="path56"
   d="m 584.65,273.02 v 0.3 c 0,2.59 0.96,5.33 4.63,5.33 1.74,0 3.26,-0.63 4.66,-1.85 l 1.59,2.48 c -1.96,1.67 -4.22,2.48 -6.73,2.48 -5.29,0 -8.62,-3.81 -8.62,-9.81 0,-3.29 0.7,-5.48 2.33,-7.33 1.52,-1.74 3.37,-2.52 5.73,-2.52 1.85,0 3.55,0.48 5.14,1.92 1.63,1.48 2.44,3.77 2.44,8.14 v 0.85 h -11.17 z m 3.59,-7.84 c -2.29,0 -3.55,1.81 -3.55,4.85 h 6.92 c 0,-3.04 -1.34,-4.85 -3.37,-4.85 z"
   class="st0"
   style="fill:#ffffff" />
	<path
   id="path58"
   d="m 305.34,315.9 h -4.33 v 9.77 h -4.22 v -25.61 h 6.81 c 3.74,0 5.11,0.37 6.51,1.22 2.26,1.33 3.52,3.63 3.52,6.44 0,5.04 -3.67,8.18 -8.29,8.18 z m 2.55,-11.13 c -0.78,-0.81 -1.89,-1.26 -3.55,-1.26 h -3.33 v 8.99 h 3.33 c 3.15,0 4.59,-1.48 4.59,-4.51 0,-1.41 -0.33,-2.49 -1.04,-3.22 z"
   class="st0"
   style="fill:#ffffff" />
	<path
   id="path60"
   d="m 320.32,317.42 v 0.3 c 0,2.59 0.96,5.33 4.62,5.33 1.74,0 3.26,-0.63 4.66,-1.85 l 1.59,2.48 c -1.96,1.66 -4.22,2.48 -6.73,2.48 -5.29,0 -8.62,-3.81 -8.62,-9.81 0,-3.29 0.7,-5.48 2.33,-7.33 1.52,-1.74 3.37,-2.52 5.74,-2.52 1.85,0 3.55,0.48 5.14,1.92 1.63,1.48 2.44,3.78 2.44,8.14 v 0.85 h -11.17 z m 3.59,-7.84 c -2.29,0 -3.55,1.81 -3.55,4.85 h 6.92 c 0,-3.04 -1.33,-4.85 -3.37,-4.85 z"
   class="st0"
   style="fill:#ffffff" />
	<path
   id="path62"
   d="m 340.82,326.15 c -3.63,0 -4.88,-2.15 -4.88,-4.81 v -11.58 h -2.07 v -2.81 h 2.07 c 0,-1.59 0,-3.22 0.19,-4.63 l 4.18,-1 c -0.18,1.52 -0.33,3.77 -0.33,5.62 h 4.48 l -1.07,2.81 h -3.44 v 10.51 c 0,2.33 0.52,3 2.29,3 0.56,0 1.04,-0.11 1.74,-0.37 l 0.52,2.44 c -1.24,0.56 -2.42,0.82 -3.68,0.82 z"
   class="st0"
   style="fill:#ffffff" />
	<path
   id="path64"
   d="m 356.92,310.5 c -0.41,-0.15 -0.7,-0.26 -1.15,-0.26 -1.7,0 -3.15,1.26 -3.52,2.78 v 12.66 h -4.07 v -13.21 c 0,-2.37 -0.26,-3.88 -0.67,-5.03 l 3.74,-0.96 c 0.44,0.85 0.7,1.92 0.7,2.96 1.48,-2.04 2.96,-3 4.77,-3 0.59,0 0.96,0.07 1.44,0.3 z"
   class="st0"
   style="fill:#ffffff" />
	<path
   id="path66"
   d="m 367.54,326.15 c -5.07,0 -8.25,-3.81 -8.25,-9.81 0,-5.99 3.22,-9.84 8.18,-9.84 5.33,0 8.36,3.96 8.36,9.88 -0.01,6.04 -3.22,9.77 -8.29,9.77 z m -0.04,-16.57 c -2.59,0 -3.7,1.96 -3.7,6.51 0,5.44 1.37,7.03 3.81,7.03 2.41,0 3.74,-1.96 3.74,-6.66 0,-5.29 -1.48,-6.88 -3.85,-6.88 z"
   class="st0"
   style="fill:#ffffff" />
	<path
   id="path68"
   d="m 384.37,326.08 c -4.11,0 -4.11,-3.7 -4.11,-5.29 v -15.95 c 0,-2.55 -0.11,-3.92 -0.37,-5.48 l 4.18,-0.93 c 0.3,1.15 0.33,2.7 0.33,5.14 v 15.87 c 0,2.52 0.11,2.92 0.41,3.37 0.22,0.33 0.85,0.52 1.33,0.3 l 0.67,2.52 c -0.74,0.3 -1.51,0.45 -2.44,0.45 z"
   class="st0"
   style="fill:#ffffff" />
	<path
   id="path70"
   d="m 393.51,317.42 v 0.3 c 0,2.59 0.96,5.33 4.62,5.33 1.74,0 3.26,-0.63 4.66,-1.85 l 1.59,2.48 c -1.96,1.66 -4.22,2.48 -6.73,2.48 -5.29,0 -8.62,-3.81 -8.62,-9.81 0,-3.29 0.7,-5.48 2.33,-7.33 1.52,-1.74 3.37,-2.52 5.74,-2.52 1.85,0 3.55,0.48 5.14,1.92 1.63,1.48 2.44,3.78 2.44,8.14 v 0.85 h -11.17 z m 3.59,-7.84 c -2.29,0 -3.55,1.81 -3.55,4.85 h 6.92 c 0,-3.04 -1.34,-4.85 -3.37,-4.85 z"
   class="st0"
   style="fill:#ffffff" />
	<path
   id="path72"
   d="m 421.59,326.26 c -0.81,-0.59 -1.29,-1.26 -1.63,-2.33 -1.37,1.55 -3.18,2.29 -5.33,2.29 -2.11,0 -3.74,-0.74 -4.66,-1.85 -0.74,-0.89 -1.04,-2.11 -1.04,-4.44 v -12.69 l 4,-0.74 v 12.54 c 0,2.33 0.33,4.03 2.74,4.03 1.37,0 3.03,-1.11 3.66,-2.44 v -13.39 l 3.92,-0.74 v 14.1 c 0,2.81 1.15,3.74 1.15,3.74 z"
   class="st0"
   style="fill:#ffffff" />
	<path
   id="path74"
   d="m 448.79,325.67 v -12.95 c 0,-2.18 -0.48,-2.81 -1.92,-2.81 -1.37,0 -2.66,0.93 -3.96,2.15 v 13.62 h -3.88 v -12.84 c 0,-2.18 -0.48,-2.89 -2.04,-2.89 -1.15,0 -2.48,0.59 -3.85,1.85 v 13.88 h -3.96 v -13.43 c 0,-2.33 -0.22,-3.74 -0.67,-4.74 l 3.7,-1.04 c 0.37,0.59 0.59,1.37 0.67,2.41 1.48,-1.52 3.22,-2.37 4.96,-2.37 1.66,0 3.11,0.55 4.48,2.74 1.81,-1.85 3.59,-2.74 5.59,-2.74 3.07,0 4.88,1.59 4.88,5.48 v 13.69 h -4 z"
   class="st0"
   style="fill:#ffffff" />
	<path
   id="path76"
   d="m 467.03,325.67 v -25.61 h 14.21 l -0.55,3.48 h -9.4 v 6.99 h 7.88 v 3.52 h -7.81 v 7.99 h 10.25 v 3.63 z"
   class="st0"
   style="fill:#ffffff" />
	<path
   id="path78"
   d="m 495.44,325.67 c -0.67,-1.07 -3.7,-6.33 -4.07,-6.99 -0.7,1.41 -3.37,5.96 -4.07,6.99 h -5.14 l 6.96,-10.14 -5.4,-8.03 4.4,-0.89 c 0.85,1.41 2.52,4.33 3.4,6.07 0.52,-1.22 2.41,-4.96 2.96,-5.74 h 4.74 l -5.51,8.51 6.85,10.21 h -5.12 z"
   class="st0"
   style="fill:#ffffff" />
	<path
   id="path80"
   d="m 511.43,326.04 c -1.59,0 -3.14,-0.52 -4.44,-1.52 0,0 0.07,0.81 0.07,1.85 v 6.25 l -3.92,1 v -21.83 c 0,-2.33 -0.11,-3.29 -0.37,-4.66 l 3.74,-0.67 c 0.19,0.63 0.26,1.15 0.3,2.29 1.18,-1.44 3.03,-2.22 5,-2.22 3.77,0 7.07,2.85 7.07,9.36 -0.02,6.23 -2.68,10.15 -7.45,10.15 z m -0.41,-16.13 c -1.48,0 -2.85,0.67 -3.96,1.92 v 9.33 c 0.96,0.96 2.26,1.67 3.48,1.67 2.74,0 3.96,-2.04 3.96,-6.48 0,-4.18 -0.82,-6.44 -3.48,-6.44 z"
   class="st0"
   style="fill:#ffffff" />
	<path
   id="path82"
   d="m 530.63,326.15 c -5.07,0 -8.25,-3.81 -8.25,-9.81 0,-5.99 3.22,-9.84 8.18,-9.84 5.33,0 8.36,3.96 8.36,9.88 0,6.04 -3.22,9.77 -8.29,9.77 z m -0.04,-16.57 c -2.59,0 -3.7,1.96 -3.7,6.51 0,5.44 1.37,7.03 3.81,7.03 2.4,0 3.74,-1.96 3.74,-6.66 0,-5.29 -1.48,-6.88 -3.85,-6.88 z"
   class="st0"
   style="fill:#ffffff" />
	<path
   id="path84"
   d="m 552.27,310.5 c -0.41,-0.15 -0.7,-0.26 -1.15,-0.26 -1.7,0 -3.15,1.26 -3.52,2.78 v 12.66 h -4.07 v -13.21 c 0,-2.37 -0.26,-3.88 -0.67,-5.03 l 3.74,-0.96 c 0.45,0.85 0.7,1.92 0.7,2.96 1.48,-2.04 2.96,-3 4.77,-3 0.59,0 0.96,0.07 1.44,0.3 z"
   class="st0"
   style="fill:#ffffff" />
	<path
   id="path86"
   d="m 561.56,326.15 c -3.63,0 -4.88,-2.15 -4.88,-4.81 v -11.58 h -2.07 v -2.81 h 2.07 c 0,-1.59 0,-3.22 0.19,-4.63 l 4.18,-1 c -0.18,1.52 -0.33,3.77 -0.33,5.62 h 4.48 l -1.07,2.81 h -3.44 v 10.51 c 0,2.33 0.52,3 2.29,3 0.55,0 1.04,-0.11 1.74,-0.37 l 0.52,2.44 c -1.24,0.56 -2.42,0.82 -3.68,0.82 z"
   class="st0"
   style="fill:#ffffff" />
	<path
   id="path88"
   d="m 570.96,304.17 c -1.48,0 -2.63,-1.22 -2.63,-2.7 0,-1.52 1.18,-2.74 2.7,-2.74 1.44,0 2.66,1.18 2.66,2.74 0.01,1.48 -1.22,2.7 -2.73,2.7 z m -2.04,21.5 v -18.43 l 4.11,-0.74 v 19.17 z"
   class="st0"
   style="fill:#ffffff" />
	<path
   id="path90"
   d="m 589.2,325.67 v -12.43 c 0,-2.55 -0.59,-3.26 -2.15,-3.26 -1.18,0 -2.88,0.89 -4.11,2.11 v 13.58 h -4 V 311.9 c 0,-1.96 -0.18,-3.11 -0.7,-4.44 l 3.7,-1.04 c 0.44,0.85 0.67,1.67 0.67,2.66 2,-1.7 3.74,-2.59 5.73,-2.59 2.89,0 4.88,1.74 4.88,5.18 v 13.99 h -4.02 z"
   class="st0"
   style="fill:#ffffff" />
	<path
   id="path92"
   d="m 613.14,309.95 c -0.89,0 -1.44,-0.22 -1.44,-0.22 0,0 1.22,1.26 1.22,3.29 0,3.26 -2.7,5.74 -7.1,5.74 -1.33,0.48 -2.52,1.18 -2.52,1.78 0,0.7 0.26,0.78 4.66,0.78 3,0 6.21,1.52 6.21,5.33 0,4 -3.33,6.14 -8.32,6.14 -4.85,0 -8.36,-1.59 -8.36,-5.11 0,-0.89 0.37,-2 0.37,-2 h 3.85 c 0,0 -0.3,0.74 -0.3,1.33 0,1.74 1.48,2.7 4.11,2.7 2.89,0 4.44,-1.18 4.44,-2.92 0,-2.04 -1.7,-2.59 -5.18,-2.59 -5.03,0 -6.14,-1 -6.14,-2.85 0,-1.85 1.55,-2.59 3.55,-3.22 -2.81,-0.81 -4.26,-2.63 -4.26,-5.29 0,-3.81 3,-6.33 7.47,-6.33 2.66,0 4.18,0.96 5.7,0.96 1.22,0 2.37,-0.45 3.4,-1.3 l 1.89,2.55 c -1.03,0.89 -1.99,1.23 -3.25,1.23 z m -7.77,-0.37 c -2.07,0 -3.22,1.15 -3.22,3.26 0,2.15 1.22,3.14 3.22,3.14 2.11,0 3.22,-1.11 3.22,-3.18 0,-2.11 -1.08,-3.22 -3.22,-3.22 z"
   class="st0"
   style="fill:#ffffff" />
	<path
   id="path94"
   d="m 637.04,326.08 c -3.4,0 -6.11,-1.29 -8.1,-3.7 -1.92,-2.33 -2.92,-5.44 -2.92,-9.14 0,-3.07 0.55,-5.62 1.7,-7.77 1.92,-3.66 5.44,-5.88 9.44,-5.88 2.48,0 4.85,0.74 6.37,2 l -1.96,2.81 c -1.37,-1 -2.78,-1.44 -4.37,-1.44 -2.18,0 -4,1.11 -5.11,3.07 -0.89,1.55 -1.33,3.7 -1.33,6.73 0,3.14 0.33,4.92 1,6.36 1.11,2.44 3.22,3.63 5.7,3.63 1.81,0 3.14,-0.48 4.59,-1.63 l 2,2.7 c -2.01,1.52 -4.27,2.26 -7.01,2.26 z"
   class="st0"
   style="fill:#ffffff" />
	<path
   id="path96"
   d="m 653.95,326.15 c -5.07,0 -8.25,-3.81 -8.25,-9.81 0,-5.99 3.22,-9.84 8.18,-9.84 5.33,0 8.36,3.96 8.36,9.88 0,6.04 -3.22,9.77 -8.29,9.77 z m -0.04,-16.57 c -2.59,0 -3.7,1.96 -3.7,6.51 0,5.44 1.37,7.03 3.81,7.03 2.41,0 3.74,-1.96 3.74,-6.66 0,-5.29 -1.48,-6.88 -3.85,-6.88 z"
   class="st0"
   style="fill:#ffffff" />
	<path
   id="path98"
   d="m 679.33,326.26 c -0.81,-0.59 -1.29,-1.26 -1.63,-2.33 -1.37,1.55 -3.18,2.29 -5.33,2.29 -2.11,0 -3.74,-0.74 -4.66,-1.85 -0.74,-0.89 -1.04,-2.11 -1.04,-4.44 v -12.69 l 4,-0.74 v 12.54 c 0,2.33 0.33,4.03 2.74,4.03 1.37,0 3.03,-1.11 3.66,-2.44 v -13.39 l 3.92,-0.74 v 14.1 c 0,2.81 1.15,3.74 1.15,3.74 z"
   class="st0"
   style="fill:#ffffff" />
	<path
   id="path100"
   d="m 696.79,325.67 v -12.43 c 0,-2.55 -0.59,-3.26 -2.15,-3.26 -1.18,0 -2.88,0.89 -4.11,2.11 v 13.58 h -4 V 311.9 c 0,-1.96 -0.18,-3.11 -0.7,-4.44 l 3.7,-1.04 c 0.44,0.85 0.67,1.67 0.67,2.66 2,-1.7 3.74,-2.59 5.73,-2.59 2.89,0 4.88,1.74 4.88,5.18 v 13.99 h -4.02 z"
   class="st0"
   style="fill:#ffffff" />
	<path
   id="path102"
   d="m 711.63,326.15 c -3.63,0 -4.88,-2.15 -4.88,-4.81 v -11.58 h -2.07 v -2.81 h 2.07 c 0,-1.59 0,-3.22 0.19,-4.63 l 4.18,-1 c -0.18,1.52 -0.33,3.77 -0.33,5.62 h 4.48 l -1.07,2.81 h -3.44 v 10.51 c 0,2.33 0.52,3 2.29,3 0.55,0 1.04,-0.11 1.74,-0.37 l 0.52,2.44 c -1.24,0.56 -2.42,0.82 -3.68,0.82 z"
   class="st0"
   style="fill:#ffffff" />
	<path
   id="path104"
   d="m 727.72,310.5 c -0.41,-0.15 -0.7,-0.26 -1.15,-0.26 -1.7,0 -3.15,1.26 -3.52,2.78 v 12.66 h -4.07 v -13.21 c 0,-2.37 -0.26,-3.88 -0.67,-5.03 l 3.74,-0.96 c 0.45,0.85 0.7,1.92 0.7,2.96 1.48,-2.04 2.96,-3 4.77,-3 0.59,0 0.96,0.07 1.44,0.3 z"
   class="st0"
   style="fill:#ffffff" />
	<path
   id="path106"
   d="m 733.61,304.17 c -1.48,0 -2.63,-1.22 -2.63,-2.7 0,-1.52 1.18,-2.74 2.7,-2.74 1.44,0 2.66,1.18 2.66,2.74 0.01,1.48 -1.22,2.7 -2.73,2.7 z m -2.04,21.5 v -18.43 l 4.11,-0.74 v 19.17 z"
   class="st0"
   style="fill:#ffffff" />
	<path
   id="path108"
   d="m 744.97,317.42 v 0.3 c 0,2.59 0.96,5.33 4.62,5.33 1.74,0 3.26,-0.63 4.66,-1.85 l 1.59,2.48 c -1.96,1.66 -4.22,2.48 -6.73,2.48 -5.29,0 -8.62,-3.81 -8.62,-9.81 0,-3.29 0.7,-5.48 2.33,-7.33 1.52,-1.74 3.37,-2.52 5.74,-2.52 1.85,0 3.55,0.48 5.14,1.92 1.63,1.48 2.44,3.78 2.44,8.14 v 0.85 h -11.17 z m 3.59,-7.84 c -2.29,0 -3.55,1.81 -3.55,4.85 h 6.92 c -0.01,-3.04 -1.34,-4.85 -3.37,-4.85 z"
   class="st0"
   style="fill:#ffffff" />
	<path
   id="path110"
   d="m 765.91,326.19 c -2.29,0 -4.77,-0.74 -7.18,-2.07 l 1.44,-2.92 c 1.66,0.96 3.96,1.96 6.07,1.96 1.78,0 3.03,-1.07 3.03,-2.63 0,-1.44 -0.92,-2.18 -3.03,-2.63 l -2.26,-0.48 c -2.81,-0.59 -4.48,-2.52 -4.48,-5.14 0,-3.51 2.81,-5.96 6.96,-5.96 2.55,0 4.59,0.78 6.18,1.63 l -1.33,2.81 c -1.74,-0.93 -3.11,-1.37 -4.59,-1.37 -1.74,0 -2.85,0.96 -2.85,2.4 0,1.15 0.63,1.74 2.52,2.22 l 2.33,0.59 c 3.77,0.96 4.77,3.03 4.77,5.22 0,3.78 -3.07,6.37 -7.58,6.37 z"
   class="st0"
   style="fill:#ffffff" />
</g>
<rect
   id="rect114"
   height="162.13"
   width="5.3400002"
   class="st0"
   y="2.05"
   x="206.37001" />
</svg>
